<?xml version="1.0" encoding="UTF-8"?>
<svg xmlns="http://www.w3.org/2000/svg" xmlns:xlink="http://www.w3.org/1999/xlink" version="1.1" viewBox="0 0 62.9 51.6">
  <!-- Generator: Adobe Illustrator 29.3.0, SVG Export Plug-In . SVG Version: 2.1.0 Build 146)  -->
  <defs>
    <style>
      .st0 {
        fill: url(#linear-gradient);
      }

      .st1 {
        isolation: isolate;
      }

      .st2 {
        fill: #fff;
      }

      .st3 {
        fill: #231f20;
        mix-blend-mode: multiply;
        opacity: .6;
      }

      .st4 {
        fill: #1c75bc;
      }
    </style>
    <linearGradient id="linear-gradient" x1="28.4" y1="37.4" x2="28.4" y2="2" gradientTransform="translate(0 50) scale(1 -1)" gradientUnits="userSpaceOnUse">
      <stop offset="0" stop-color="#27aae1"/>
      <stop offset="1" stop-color="#1c75bc"/>
    </linearGradient>
  </defs>
  <g class="st1">
    <g id="Layer_2">
      <path d="M-2.5,72.1c5,1.8,7.4-5.4,10.4-6.7s1.7,4.9,1,6.7c1.9.2,6.1-1,6.4,1.8s-1.5,8.1-2.7,8.1H-2.5v-9.8Z"/>
      <path class="st3" d="M4.7,50.3h51.5c1.5,0,2.6-1.4,2.6-3.1V11.9c0-1.7-1.2-3.1-2.6-3.1h-28.4c-1.2,0-2.2-.9-2.5-2.2l-.7-3c-.3-1.3-1.4-2.2-2.5-2.2H4.8c-1.4,0-2.6,1.4-2.6,3.1v42.8c0,1.7,1.1,3.1,2.5,3.1h0Z"/>
      <path class="st4" d="M2.6,41.8h51.5c1.5,0,2.6-1.2,2.6-2.6V9c0-1.4-1.2-2.6-2.6-2.6h-28.4c-1.2,0-2.2-.8-2.5-1.9l-.7-2.6C22.3.8,21.2,0,20,0H2.7c-1.4,0-2.6,1.2-2.6,2.6v36.6c0,1.5,1.1,2.6,2.5,2.6h0Z"/>
      <rect class="st0" y="12.6" width="56.8" height="35.4" rx="2.7" ry="2.7"/>
      <path d="M79.4,57.6v28.5h-32.5v-28.5s32.5,0,32.5,0ZM54.8,67.5v9.8h15c1.2,0,2.9-6.9,2.7-8.1-.4-2.7-4.5-1.5-6.4-1.8.8-1.8,3.1-8.4-1-6.7s-5.4,8.5-10.4,6.7Z"/>
      <polygon class="st2" points="46.9 86.1 46.4 86.1 46.4 57.1 79.4 57.1 79.4 57.6 46.9 57.6 46.9 86.1"/>
      <g>
        <path d="M23.9,79.6v-9.4h.3c.4-.3,1.4-1.5,2.3-2.6,2-2.3,3.4-3.9,4.4-3.9s.5,0,.7.3l.2.2-1.4,6.6h0c.4,0,.8,0,1.3,0,.6,0,1.2,0,1.7,0,1.3,0,2.8.1,3.1,1.2.3,1-1.2,6.7-2.3,7.6h-.1c0,.1-10.3.1-10.3.1Z"/>
        <path d="M31,64.2c.1,0,.2,0,.3.1l-1.5,6.9c.2,0,.4,0,.7,0,.8,0,2-.1,3-.1,1.3,0,2.4.2,2.6.9.2.8-1.1,6.2-2.2,7.1h-9.6v-8.6c1.2-.6,5.1-6.3,6.6-6.3M31,63.2c-1.3,0-2.7,1.5-4.8,4-.8.9-1.8,2.1-2.2,2.3l-.6.3v.6s0,8.6,0,8.6v1h11l.3-.2c1.4-1.1,2.9-6.9,2.5-8.1-.5-1.6-2.7-1.6-3.6-1.6s-1.2,0-1.8,0c-.3,0-.5,0-.7,0l1.2-5.7v-.5c.1,0-.3-.4-.3-.4-.3-.3-.6-.4-1-.4h0Z"/>
      </g>
      <g>
        <rect x="17.9" y="70.5" width="4" height="8.9"/>
        <path d="M21.3,71v7.9h-3v-7.9h3M22.3,70h-5v9.9h5v-9.9h0Z"/>
      </g>
      <path d="M59.7,67.7c1.3-.6,5.8-7.3,6.9-6.1l-1.5,6.9c1.3.3,5.9-.7,6.4.8s-1.1,6.2-2.2,7.1h-9.6v-8.6Z"/>
      <rect x="55.8" y="68.4" width="3" height="7.9"/>
    </g>
  </g>
</svg>