<?xml version="1.0" encoding="UTF-8"?>
<svg id="Layer_2" data-name="Layer 2" xmlns="http://www.w3.org/2000/svg" viewBox="0 0 19.87 16.87">
  <g id="Layer_2-2" data-name="Layer 2">
    <g>
      <path d="M6.58,16.37V6.95l.29-.13c.41-.19,1.44-1.39,2.35-2.44,2.02-2.34,3.42-3.88,4.44-3.88.26,0,.49.09.67.27l.19.19-1.41,6.58h.08c.37,0,.81-.02,1.29-.05.56-.03,1.17-.06,1.74-.06,1.29,0,2.82.14,3.12,1.22.29,1.01-1.17,6.66-2.35,7.6l-.14.11H6.58Z"/>
      <path d="M13.66,1c.12,0,.23.04.32.13l-1.48,6.88c.18.03.41.05.69.05.81,0,1.97-.11,3.03-.11,1.29,0,2.44.16,2.64.86.24.83-1.13,6.24-2.18,7.07H7.08V7.27c1.22-.58,5.1-6.27,6.58-6.27M13.66,0c-1.26,0-2.65,1.54-4.82,4.05-.78.9-1.84,2.13-2.19,2.32l-.57.27v.63s0,8.6,0,8.6v1h10.95l.27-.21c1.38-1.09,2.86-6.91,2.52-8.12-.45-1.59-2.66-1.59-3.61-1.59-.59,0-1.22.03-1.77.06-.25.01-.5.03-.72.03l1.22-5.7.11-.53-.39-.38c-.27-.27-.63-.42-1.02-.42h0Z"/>
    </g>
    <g>
      <rect x=".5" y="7.32" width="3.96" height="8.86"/>
      <path d="M3.96,7.82v7.86H1v-7.86h2.96M4.96,6.82H0v9.86h4.96V6.82h0Z"/>
    </g>
  </g>
</svg>