<?xml version="1.0" encoding="UTF-8"?>
<svg id="Layer_2" data-name="Layer 2" xmlns="http://www.w3.org/2000/svg" viewBox="0 0 93.86 44.78">
  <defs>
    <style>
      .cls-1 {
        fill: #3e5eab;
      }

      .cls-2 {
        fill: #231f20;
      }

      .cls-3 {
        fill: #fff;
      }
    </style>
  </defs>
  <g id="Layer_1-2" data-name="Layer 1">
    <g>
      <g>
        <path class="cls-2" d="M5.13,19.66v-1.4h.7v-2.1h.7v-2.8h.7v-2.1h-.7v-.7h2.8v.7h-.7v2.1h-.7v2.8h-.7v2.1h-.7v1.4h4.2v-.7h.7v1.4h-7v-.7h.7ZM12.13,17.56v1.4h-.7v-1.4h.7Z"/>
        <path class="cls-2" d="M13.53,18.96v-2.8h.7v-1.4h.7v-.7h1.4v.7h-.7v1.4h-.7v2.8h.7v.7h2.1v.7h-2.8v-.7h-.7v-.7h-.7ZM18.43,18.96v-1.4h.7v-2.8h-.7v-.7h-2.1v-.7h2.8v.7h.7v.7h.7v2.8h-.7v1.4h-.7v.7h-1.4v-.7h.7Z"/>
        <path class="cls-2" d="M22.63,14.76v1.4h-1.4v-2.1h.7v.7h.7ZM23.33,19.66v-.7h-.7v-2.1h.7v-2.1h.7v-.7h-2.1v-.7h3.5v.7h-.7v2.8h-.7v2.1h.7v.7h2.1v.7h-2.8v-.7h-.7ZM27.53,18.96v.7h-.7v-.7h.7ZM27.53,14.76v-1.4h1.4v4.2h-.7v-2.8h-.7ZM28.23,17.56v1.4h-.7v-1.4h.7Z"/>
        <path class="cls-2" d="M29.63,18.96v-2.8h.7v-1.4h.7v-.7h1.4v.7h-.7v1.4h-.7v1.4h1.4v.7h-1.4v.7h.7v.7h2.1v.7h-2.8v-.7h-.7v-.7h-.7ZM34.53,16.16v-2.1h-2.1v-.7h2.8v.7h.7v2.1h-.7v.7h-1.4v-.7h.7ZM33.83,16.86v.7h-1.4v-.7h1.4ZM35.23,18.96v.7h-1.4v-.7h1.4ZM35.93,18.26v.7h-.7v-.7h.7Z"/>
        <path class="cls-2" d="M38.03,18.26v-2.1h.7v-2.1h-.7v-.7h2.1v1.4h.7v.7h-.7v1.4h-.7v1.4h-.7v2.1h-1.4v-2.1h.7ZM38.03,14.05v.7h-.7v-.7h.7ZM41.53,14.05v.7h-.7v-.7h.7ZM42.93,13.35v.7h.7v1.4h-1.4v-1.4h-.7v-.7h1.4Z"/>
        <path class="cls-2" d="M43.63,19.66v-1.4h1.4v1.4h2.1v-1.4h-.7v-1.4h-.7v-1.4h-.7v-1.4h.7v-.7h3.5v.7h.7v1.4h-1.4v-1.4h-2.1v1.4h.7v1.4h.7v1.4h.7v1.4h-.7v.7h-3.5v-.7h-.7Z"/>
        <path class="cls-2" d="M53.43,12.65v.7h-1.4v-.7h1.4ZM52.73,11.95v-1.4h1.4v2.1h-.7v-.7h-.7Z"/>
      </g>
      <g>
        <path class="cls-2" d="M31.74,30.45v1.4h-.7v-1.4h.7ZM32.44,29.05v1.4h-.7v-1.4h.7ZM35.94,31.15v-.7h.7v-1.4h-.7v-.7h-.7v-.7h-.7v-.7h-.7v-.7h-.7v-.7h-.7v-2.1h.7v-.7h.7v-.7h2.8v.7h-2.1v.7h-.7v1.4h.7v.7h.7v.7h.7v.7h.7v.7h.7v.7h.7v2.1h-.7v.7h-.7v.7h-3.5v-.7h2.8ZM33.14,30.45v.7h-.7v-.7h.7ZM37.34,22.75v.7h-.7v-.7h.7ZM38.04,23.45v1.4h-.7v-1.4h.7ZM38.74,22.05v1.4h-.7v-1.4h.7Z"/>
        <path class="cls-2" d="M39.02,31.15v-2.8h.7v-1.4h.7v-.7h1.4v.7h-.7v1.4h-.7v2.1h.7v.7h1.4v.7h-2.8v-.7h-.7ZM43.22,25.55v.7h-1.4v-.7h1.4ZM43.22,30.45v.7h-.7v-.7h.7ZM43.92,29.75v-.7h.7v-1.4h.7v-2.1h-2.1v-.7h3.5v2.8h-.7v2.1h-.7v1.4h.7v.7h-2.1v-1.4h-.7v-.7h.7ZM46.72,30.45v.7h-.7v-.7h.7Z"/>
        <path class="cls-2" d="M48.82,29.75v-2.1h.7v-2.1h-.7v-.7h2.1v2.1h.7v.7h-.7v.7h-.7v1.4h-.7v2.1h-1.4v-2.1h.7ZM48.82,25.55v.7h-.7v-.7h.7ZM52.32,26.25v.7h-.7v-.7h.7ZM53.02,25.55v.7h-.7v-.7h.7ZM53.72,29.75v-2.1h.7v-1.4h-.7v-.7h-.7v-.7h2.1v.7h.7v2.1h-.7v2.1h-.7v1.4h.7v.7h-2.1v-2.1h.7ZM55.82,30.45v.7h-.7v-.7h.7Z"/>
        <path class="cls-2" d="M56.66,31.15v-2.8h.7v-1.4h.7v-.7h1.4v.7h-.7v1.4h-.7v2.1h.7v.7h1.4v.7h-2.8v-.7h-.7ZM60.86,25.55v.7h-1.4v-.7h1.4ZM60.86,30.45v.7h-.7v-.7h.7ZM61.56,29.75v-.7h.7v-1.4h.7v-2.1h-2.1v-.7h2.8v-2.1h-1.4v-.7h2.8v2.8h-.7v2.8h-.7v2.1h-.7v1.4h.7v.7h-2.1v-1.4h-.7v-.7h.7ZM64.36,30.45v.7h-.7v-.7h.7Z"/>
        <path class="cls-2" d="M67.16,30.45v-2.8h.7v-2.8h.7v-2.1h-1.4v-.7h2.8v2.8h-.7v1.4h.7v.7h-.7v.7h-.7v3.5h-.7v-.7h-.7ZM71.36,31.15v.7h-2.8v-.7h2.8ZM70.66,25.55v.7h-.7v-.7h.7ZM72.06,30.45v-1.4h.7v-2.8h-.7v-.7h-1.4v-.7h2.1v.7h.7v.7h.7v2.8h-.7v1.4h-.7v.7h-1.4v-.7h.7Z"/>
        <path class="cls-2" d="M74.86,30.45v-2.8h.7v-1.4h.7v-.7h1.4v.7h-.7v1.4h-.7v2.8h.7v.7h2.1v.7h-2.8v-.7h-.7v-.7h-.7ZM79.76,30.45v-1.4h.7v-2.8h-.7v-.7h-2.1v-.7h2.8v.7h.7v.7h.7v2.8h-.7v1.4h-.7v.7h-1.4v-.7h.7Z"/>
        <path class="cls-2" d="M83.96,30.45v.7h.7v.7h-2.1v-1.4h1.4ZM83.96,26.25v.7h-.7v-.7h.7ZM84.66,25.55v.7h-.7v-.7h.7ZM86.76,29.75v-1.4h-.7v-1.4h-.7v-1.4h-.7v-.7h1.4v.7h.7v1.4h.7v1.4h.7v1.4h.7v1.4h.7v.7h-1.4v-.7h-.7v-1.4h-.7ZM85.36,30.45v.7h-.7v-.7h.7ZM86.06,29.75v.7h-.7v-.7h.7ZM88.86,26.95v.7h-.7v-.7h.7ZM89.56,26.25v.7h-.7v-.7h.7ZM90.26,25.55v.7h-.7v-.7h.7ZM90.26,30.45v.7h-.7v-.7h.7ZM92.36,24.85v1.4h-1.4v-.7h-.7v-.7h2.1ZM90.96,29.75v.7h-.7v-.7h.7ZM91.66,29.05v.7h-.7v-.7h.7Z"/>
      </g>
      <rect class="cls-2" x="61.69" y="22.01" width="7.7" height=".7"/>
      <rect class="cls-2" x="47.43" y="26.26" width=".69" height="2.23"/>
      <rect class="cls-2" x="46.74" y="28.49" width=".69" height="1.97"/>
      <rect class="cls-2" x="36.66" y="14.76" width=".68" height="1.77"/>
      <rect class="cls-2" x="35.94" y="16.53" width=".72" height="1.73"/>
      <g>
        <g>
          <rect class="cls-2" x="86.19" y="13.56" width=".7" height=".7" transform="translate(4.92 -18.03) rotate(12.24)"/>
          <rect class="cls-2" x="85.36" y="14.1" width=".7" height=".7" transform="translate(5.01 -17.84) rotate(12.24)"/>
          <rect class="cls-2" x="84.53" y="14.64" width=".7" height=".7" transform="translate(5.11 -17.65) rotate(12.24)"/>
          <rect class="cls-2" x="83.69" y="15.17" width=".7" height=".7" transform="translate(5.2 -17.46) rotate(12.24)"/>
          <rect class="cls-2" x="82.86" y="15.71" width=".7" height=".7" transform="translate(5.29 -17.27) rotate(12.24)"/>
          <rect class="cls-2" x="82.03" y="16.25" width=".7" height=".7" transform="translate(5.39 -17.08) rotate(12.24)"/>
          <rect class="cls-2" x="81.2" y="16.78" width=".7" height=".7" transform="translate(5.48 -16.9) rotate(12.24)"/>
          <rect class="cls-2" x="58.7" y="13.07" width="11.45" height=".7" transform="translate(4.31 -13.35) rotate(12.24)"/>
          <rect class="cls-2" x="69.74" y="16.18" width="11.45" height=".7" transform="translate(5.22 -15.62) rotate(12.24)"/>
          <polygon class="cls-2" points="82.05 5.4 82.02 5.54 81.9 6.09 81.09 5.91 75.53 4.71 74.84 4.56 74.72 4.53 74.16 4.41 74.15 4.41 74.03 4.38 73.47 4.26 72.78 4.11 72.1 3.96 71.97 3.93 71.28 3.78 70.71 3.66 70.83 3.11 70.86 2.98 72.12 3.25 72.8 3.4 72.81 3.4 72.78 3.53 72.9 3.56 73.46 3.68 73.49 3.55 73.5 3.55 73.62 3.58 74.18 3.7 74.3 3.72 74.31 3.73 74.99 3.87 81.24 5.22 82.05 5.4"/>
          <rect class="cls-2" x="81.69" y="7.29" width="11.45" height=".7" transform="translate(3.61 -18.36) rotate(12.24)"/>
          <rect class="cls-2" x="92.86" y="9.27" width=".7" height=".7" transform="translate(4.16 -19.54) rotate(12.24)"/>
          <rect class="cls-2" x="92.02" y="9.8" width=".7" height=".7" transform="translate(4.25 -19.35) rotate(12.24)"/>
          <rect class="cls-2" x="91.19" y="10.34" width=".7" height=".7" transform="translate(4.35 -19.16) rotate(12.24)"/>
          <rect class="cls-2" x="90.36" y="10.88" width=".7" height=".7" transform="translate(4.44 -18.97) rotate(12.24)"/>
          <rect class="cls-2" x="89.52" y="11.41" width=".7" height=".7" transform="translate(4.54 -18.78) rotate(12.24)"/>
          <rect class="cls-2" x="88.69" y="11.95" width=".7" height=".7" transform="translate(4.63 -18.59) rotate(12.24)"/>
          <rect class="cls-2" x="87.86" y="12.49" width=".7" height=".7" transform="translate(4.73 -18.41) rotate(12.24)"/>
          <rect class="cls-2" x="87.03" y="13.03" width=".7" height=".7" transform="translate(4.82 -18.22) rotate(12.24)"/>
          <rect class="cls-2" x="63.28" y="7.87" width=".7" height=".7" transform="translate(3.19 -13.3) rotate(12.24)"/>
          <rect class="cls-2" x="62.45" y="8.41" width=".7" height=".7" transform="translate(3.28 -13.11) rotate(12.24)"/>
          <rect class="cls-2" x="61.61" y="8.95" width=".7" height=".7" transform="translate(3.38 -12.92) rotate(12.24)"/>
          <rect class="cls-2" x="60.78" y="9.49" width=".7" height=".7" transform="translate(3.47 -12.73) rotate(12.24)"/>
          <rect class="cls-2" x="59.95" y="10.02" width=".7" height=".7" transform="translate(3.57 -12.55) rotate(12.24)"/>
          <rect class="cls-2" x="59.12" y="10.56" width=".7" height=".7" transform="translate(3.66 -12.36) rotate(12.24)"/>
          <rect class="cls-2" x="58.28" y="11.1" width=".7" height=".7" transform="translate(3.76 -12.17) rotate(12.24)"/>
          <rect class="cls-2" x="69.94" y="3.58" width=".7" height=".7" transform="translate(2.43 -14.81) rotate(12.24)"/>
          <rect class="cls-2" x="69.11" y="4.12" width=".7" height=".7" transform="translate(2.53 -14.62) rotate(12.24)"/>
          <rect class="cls-2" x="68.28" y="4.65" width=".7" height=".7" transform="translate(2.62 -14.43) rotate(12.24)"/>
          <rect class="cls-2" x="67.44" y="5.19" width=".7" height=".7" transform="translate(2.72 -14.24) rotate(12.24)"/>
          <rect class="cls-2" x="66.61" y="5.73" width=".7" height=".7" transform="translate(2.81 -14.06) rotate(12.24)"/>
          <rect class="cls-2" x="65.78" y="6.26" width=".7" height=".7" transform="translate(2.9 -13.87) rotate(12.24)"/>
          <rect class="cls-2" x="64.95" y="6.8" width=".7" height=".7" transform="translate(3 -13.68) rotate(12.24)"/>
          <rect class="cls-2" x="64.11" y="7.34" width=".7" height=".7" transform="translate(3.09 -13.49) rotate(12.24)"/>
        </g>
        <g>
          <rect class="cls-2" x="85.99" y="17.82" width=".7" height=".7" transform="translate(5.81 -17.89) rotate(12.24)"/>
          <rect class="cls-2" x="85.15" y="18.36" width=".7" height=".7" transform="translate(5.91 -17.7) rotate(12.24)"/>
          <rect class="cls-2" x="84.32" y="18.9" width=".7" height=".7" transform="translate(6 -17.51) rotate(12.24)"/>
          <rect class="cls-2" x="83.49" y="19.43" width=".7" height=".7" transform="translate(6.1 -17.32) rotate(12.24)"/>
          <rect class="cls-2" x="82.65" y="19.97" width=".7" height=".7" transform="translate(6.19 -17.13) rotate(12.24)"/>
          <rect class="cls-2" x="81.82" y="20.51" width=".7" height=".7" transform="translate(6.29 -16.94) rotate(12.24)"/>
          <rect class="cls-2" x="80.99" y="21.04" width=".7" height=".7" transform="translate(6.38 -16.75) rotate(12.24)"/>
          <rect class="cls-2" x="58.49" y="17.33" width="11.45" height=".7" transform="translate(5.21 -13.21) rotate(12.24)"/>
          <rect class="cls-2" x="69.53" y="20.44" width="11.45" height=".7" transform="translate(6.12 -15.48) rotate(12.24)"/>
          <rect class="cls-2" x="92.65" y="13.53" width=".7" height=".7" transform="translate(5.05 -19.4) rotate(12.24)"/>
          <rect class="cls-2" x="91.82" y="14.06" width=".7" height=".7" transform="translate(5.15 -19.21) rotate(12.24)"/>
          <rect class="cls-2" x="90.98" y="14.6" width=".7" height=".7" transform="translate(5.24 -19.02) rotate(12.24)"/>
          <rect class="cls-2" x="90.15" y="15.14" width=".7" height=".7" transform="translate(5.34 -18.83) rotate(12.24)"/>
          <rect class="cls-2" x="89.32" y="15.67" width=".7" height=".7" transform="translate(5.43 -18.64) rotate(12.24)"/>
          <rect class="cls-2" x="88.48" y="16.21" width=".7" height=".7" transform="translate(5.53 -18.45) rotate(12.24)"/>
          <rect class="cls-2" x="87.65" y="16.75" width=".7" height=".7" transform="translate(5.62 -18.26) rotate(12.24)"/>
          <rect class="cls-2" x="86.82" y="17.29" width=".7" height=".7" transform="translate(5.72 -18.08) rotate(12.24)"/>
          <rect class="cls-2" x="62.24" y="12.67" width=".7" height=".7" transform="translate(4.18 -12.97) rotate(12.24)"/>
          <rect class="cls-2" x="58.07" y="15.36" width=".7" height=".7" transform="translate(4.66 -12.03) rotate(12.24)"/>
        </g>
        <rect class="cls-2" x="92.86" y="9.27" width=".7" height=".7" transform="translate(4.16 -19.54) rotate(12.24)"/>
        <rect class="cls-2" x="92.95" y="11.46" width=".7" height="2.1" transform="translate(4.77 -19.49) rotate(12.24)"/>
        <rect class="cls-2" x="92.63" y="9.94" width=".7" height="1.4" transform="translate(4.37 -19.47) rotate(12.24)"/>
        <rect class="cls-2" x="58.22" y="13.97" width=".7" height="2.1" transform="translate(4.51 -12.07) rotate(12.24)"/>
        <rect class="cls-2" x="57.91" y="12.46" width=".7" height="1.4" transform="translate(4.11 -12.05) rotate(12.24)"/>
        <rect class="cls-2" x="79.46" y="12.64" width=".76" height=".7" transform="translate(4.57 -16.63) rotate(12.24)"/>
        <rect class="cls-2" x="81.62" y="13.82" width=".7" height=".7" transform="translate(4.87 -17.05) rotate(12.24)"/>
        <rect class="cls-2" x="81.33" y="15.19" width=".7" height=".7" transform="translate(5.15 -16.96) rotate(12.24)"/>
        <rect class="cls-2" x="82.16" y="14.65" width=".7" height=".7" transform="translate(5.05 -17.15) rotate(12.24)"/>
        <rect class="cls-2" x="82.99" y="14.11" width=".7" height=".7" transform="translate(4.96 -17.34) rotate(12.24)"/>
        <rect class="cls-2" x="82.46" y="13.28" width=".7" height=".7" transform="translate(4.77 -17.24) rotate(12.24)"/>
        <rect class="cls-2" x="80.79" y="14.35" width=".7" height=".7" transform="translate(4.96 -16.86) rotate(12.24)"/>
        <rect class="cls-2" x="84.12" y="12.21" width=".7" height=".7" transform="translate(4.58 -17.62) rotate(12.24)"/>
        <rect class="cls-2" x="83.82" y="13.58" width=".7" height=".7" transform="translate(4.86 -17.53) rotate(12.24)"/>
        <rect class="cls-2" x="84.66" y="13.04" width=".7" height=".7" transform="translate(4.77 -17.71) rotate(12.24)"/>
        <rect class="cls-2" x="85.49" y="12.5" width=".7" height=".7" transform="translate(4.67 -17.9) rotate(12.24)"/>
        <rect class="cls-2" x="84.95" y="11.67" width=".7" height=".7" transform="translate(4.49 -17.81) rotate(12.24)"/>
        <rect class="cls-2" x="86.32" y="11.97" width=".7" height=".7" transform="translate(4.58 -18.09) rotate(12.24)"/>
        <rect class="cls-2" x="85.79" y="11.13" width=".7" height=".7" transform="translate(4.39 -18) rotate(12.24)"/>
        <rect class="cls-2" x="87.16" y="11.43" width=".7" height=".7" transform="translate(4.49 -18.28) rotate(12.24)"/>
        <rect class="cls-2" x="83.65" y="10.28" width="3.7" height=".7" transform="translate(4.2 -17.88) rotate(12.24)"/>
        <rect class="cls-2" x="83.29" y="12.74" width=".7" height=".7" transform="translate(4.68 -17.43) rotate(12.24)"/>
        <rect class="cls-2" x="80.36" y="12.11" width=".7" height=".7" transform="translate(4.47 -16.82) rotate(12.24)"/>
        <rect class="cls-2" x="82.02" y="11.03" width=".7" height=".7" transform="translate(4.28 -17.2) rotate(12.24)"/>
        <rect class="cls-2" x="82.85" y="10.5" width=".7" height=".7" transform="translate(4.19 -17.39) rotate(12.24)"/>
        <rect class="cls-2" x="83.69" y="9.96" width=".7" height=".7" transform="translate(4.09 -17.58) rotate(12.24)"/>
        <rect class="cls-2" x="81.19" y="11.57" width=".7" height=".7" transform="translate(4.38 -17.01) rotate(12.24)"/>
        <rect class="cls-2" x="77.42" y="10.94" width="2.44" height=".7" transform="translate(4.18 -16.41) rotate(12.24)"/>
        <rect class="cls-2" x="80.8" y="10.05" width=".7" height=".7" transform="translate(4.05 -16.96) rotate(12.24)"/>
        <rect class="cls-2" x="80.04" y="9.34" width="2.31" height=".7" transform="translate(3.9 -16.99) rotate(12.24)"/>
        <rect class="cls-2" x="79.97" y="10.59" width=".7" height=".7" transform="translate(4.14 -16.78) rotate(12.24)"/>
        <rect class="cls-2" x="76.87" y="10.63" width=".7" height=".7" transform="translate(4.08 -16.12) rotate(12.24)"/>
        <rect class="cls-2" x="78.54" y="9.56" width=".7" height=".7" transform="translate(3.89 -16.5) rotate(12.24)"/>
        <rect class="cls-2" x="79.37" y="9.02" width=".7" height=".7" transform="translate(3.8 -16.69) rotate(12.24)"/>
        <rect class="cls-2" x="77.71" y="10.1" width=".7" height=".7" transform="translate(3.99 -16.31) rotate(12.24)"/>
        <rect class="cls-2" x="67.39" y="9.12" width="2.44" height=".7" transform="translate(3.57 -14.33) rotate(12.24)"/>
        <rect class="cls-2" x="70.77" y="8.23" width=".7" height=".7" transform="translate(3.44 -14.88) rotate(12.24)"/>
        <rect class="cls-2" x="70.01" y="7.53" width="2.31" height=".7" transform="translate(3.29 -14.91) rotate(12.24)"/>
        <rect class="cls-2" x="66.84" y="8.82" width=".7" height=".7" transform="translate(3.47 -14.03) rotate(12.24)"/>
        <rect class="cls-2" x="68.51" y="7.74" width=".7" height=".7" transform="translate(3.28 -14.41) rotate(12.24)"/>
        <rect class="cls-2" x="69.34" y="7.21" width=".7" height=".7" transform="translate(3.19 -14.6) rotate(12.24)"/>
        <rect class="cls-2" x="67.68" y="8.28" width=".7" height=".7" transform="translate(3.38 -14.22) rotate(12.24)"/>
        <rect class="cls-2" x="67.09" y="10.49" width="2.44" height=".7" transform="translate(3.85 -14.23) rotate(12.24)"/>
        <rect class="cls-2" x="70.47" y="9.6" width=".7" height=".7" transform="translate(3.72 -14.79) rotate(12.24)"/>
        <rect class="cls-2" x="71.31" y="9.07" width=".7" height=".7" transform="translate(3.62 -14.97) rotate(12.24)"/>
        <rect class="cls-2" x="74.96" y="6.99" width=".7" height=".7" transform="translate(3.27 -15.8) rotate(12.24)"/>
        <rect class="cls-2" x="76.58" y="6.62" width=".7" height=".7" transform="translate(3.23 -16.15) rotate(12.24)"/>
        <rect class="cls-2" x="77.42" y="6.09" width=".7" height=".7" transform="translate(3.13 -16.34) rotate(12.24)"/>
        <rect class="cls-2" x="69.64" y="10.14" width=".7" height=".7" transform="translate(3.81 -14.6) rotate(12.24)"/>
        <rect class="cls-2" x="66.55" y="10.19" width=".7" height=".7" transform="translate(3.75 -13.94) rotate(12.24)"/>
        <rect class="cls-2" x="68.21" y="9.11" width=".7" height=".7" transform="translate(3.56 -14.32) rotate(12.24)"/>
        <rect class="cls-2" x="69.25" y="8.62" width=".7" height=".7" transform="translate(3.48 -14.55) rotate(12.24)"/>
        <rect class="cls-2" x="67.38" y="9.65" width=".7" height=".7" transform="translate(3.66 -14.13) rotate(12.24)"/>
        <rect class="cls-2" x="77.06" y="14.58" width="3.63" height=".7" transform="translate(4.96 -16.38) rotate(12.24)"/>
        <rect class="cls-2" x="75.05" y="12.12" width="4.82" height=".7" transform="translate(4.4 -16.14) rotate(12.24)"/>
        <rect class="cls-2" x="74.26" y="12.22" width=".7" height=".7" transform="translate(4.36 -15.53) rotate(12.24)"/>
        <rect class="cls-2" x="73.43" y="12.76" width=".7" height=".7" transform="translate(4.45 -15.34) rotate(12.24)"/>
        <rect class="cls-2" x="72.47" y="13.72" width="4.9" height=".7" transform="translate(4.68 -15.56) rotate(12.24)"/>
        <rect class="cls-2" x="73.05" y="14.93" width="8.23" height=".7" transform="translate(4.99 -16.01) rotate(12.24)"/>
        <rect class="cls-2" x="64.11" y="8.95" width=".76" height=".7" transform="translate(3.44 -13.46) rotate(12.24)"/>
        <rect class="cls-2" x="70.64" y="11.08" width=".7" height=".7" transform="translate(4.04 -14.79) rotate(12.24)"/>
        <rect class="cls-2" x="70.35" y="12.45" width=".7" height=".7" transform="translate(4.32 -14.69) rotate(12.24)"/>
        <rect class="cls-2" x="71.18" y="11.91" width=".7" height=".7" transform="translate(4.22 -14.88) rotate(12.24)"/>
        <rect class="cls-2" x="72.01" y="11.37" width=".7" height=".7" transform="translate(4.13 -15.07) rotate(12.24)"/>
        <rect class="cls-2" x="71.48" y="10.54" width=".7" height=".7" transform="translate(3.94 -14.98) rotate(12.24)"/>
        <rect class="cls-2" x="69.81" y="11.61" width=".7" height=".7" transform="translate(4.13 -14.6) rotate(12.24)"/>
        <rect class="cls-2" x="73.14" y="9.47" width=".7" height=".7" transform="translate(3.75 -15.35) rotate(12.24)"/>
        <rect class="cls-2" x="72.85" y="10.84" width=".7" height=".7" transform="translate(4.03 -15.26) rotate(12.24)"/>
        <rect class="cls-2" x="73.68" y="10.3" width=".7" height=".7" transform="translate(3.94 -15.45) rotate(12.24)"/>
        <rect class="cls-2" x="74.51" y="9.76" width=".7" height=".7" transform="translate(3.84 -15.64) rotate(12.24)"/>
        <rect class="cls-2" x="67.28" y="8.21" width="7.47" height=".7" transform="translate(3.43 -14.86) rotate(12.24)"/>
        <rect class="cls-2" x="72.31" y="10" width=".7" height=".7" transform="translate(3.85 -15.17) rotate(12.24)"/>
        <rect class="cls-2" x="65.01" y="8.42" width=".7" height=".7" transform="translate(3.34 -13.65) rotate(12.24)"/>
        <rect class="cls-2" x="66.67" y="7.34" width=".7" height=".7" transform="translate(3.15 -14.03) rotate(12.24)"/>
        <rect class="cls-2" x="72.71" y="7.22" width=".7" height=".7" transform="translate(3.26 -15.31) rotate(12.24)"/>
        <rect class="cls-2" x="65.84" y="7.88" width=".7" height=".7" transform="translate(3.25 -13.84) rotate(12.24)"/>
        <rect class="cls-2" x="66.08" y="11.84" width="3.63" height=".7" transform="translate(4.13 -14.11) rotate(12.24)"/>
        <rect class="cls-2" x="63.28" y="9.48" width=".7" height=".7" transform="translate(3.53 -13.26) rotate(12.24)"/>
        <rect class="cls-2" x="62.45" y="10.02" width=".7" height=".7" transform="translate(3.62 -13.08) rotate(12.24)"/>
        <rect class="cls-2" x="61.49" y="10.98" width="4.9" height=".7" transform="translate(3.85 -13.3) rotate(12.24)"/>
        <rect class="cls-2" x="62.07" y="12.19" width="8.23" height=".7" transform="translate(4.16 -13.74) rotate(12.24)"/>
        <rect class="cls-2" x="73.59" y="6.65" width=".7" height=".7" transform="translate(3.16 -15.51) rotate(12.24)"/>
        <rect class="cls-2" x="72.76" y="7.19" width=".7" height=".7" transform="translate(3.26 -15.33) rotate(12.24)"/>
        <rect class="cls-2" x="74.15" y=".8" width=".7" height=".7" transform="translate(1.94 -15.76) rotate(12.24)"/>
        <polygon class="cls-2" points="75.47 1.69 75.32 2.38 74.63 2.23 74.5 2.2 73.94 2.08 73.82 2.05 73.81 2.05 73.93 1.5 73.37 1.38 73.4 1.25 74.09 1.4 74.65 1.52 74.77 1.54 75.47 1.69"/>
        <rect class="cls-2" x="72.22" y="6.36" width=".7" height=".7" transform="translate(3.07 -15.23) rotate(12.24)"/>
        <rect class="cls-2" x="74.6" y="4.61" width=".7" height="2.23" transform="translate(2.92 -15.76) rotate(12.24)"/>
        <rect class="cls-2" x="74.39" y="2.28" width=".7" height="2.23" transform="translate(2.42 -15.76) rotate(12.24)"/>
        <rect class="cls-2" x="73.7" y="2.13" width=".7" height="2.23" transform="translate(2.37 -15.62) rotate(12.24)"/>
        <rect class="cls-2" x="71.85" y="4.01" width=".7" height="2.23" transform="translate(141.67 25.44) rotate(-167.76)"/>
        <polygon class="cls-2" points="73.94 2.08 73.74 3.02 73.62 3.58 73.59 3.71 73.47 4.26 72.78 4.11 72.9 3.56 73.46 3.68 73.49 3.55 73.61 2.99 73.81 2.05 73.82 2.05 73.94 2.08"/>
        <rect class="cls-2" x="69.4" y="7.94" width=".7" height=".7" transform="translate(3.34 -14.6) rotate(12.24)"/>
        <rect class="cls-2" x="70.77" y="8.23" width=".7" height=".7" transform="translate(3.44 -14.88) rotate(12.24)"/>
      </g>
    </g>
    <g>
      <g>
        <path class="cls-3" d="M10.74,16.82v1.41h.7v-1.41h-.7ZM10.04,18.23v.7h-4.2v-1.41h.7v-2.1h.7v-2.8h.7v-2.1h.7v-.7h-2.8v.7h.7v2.1h-.7v2.8h-.7v2.1h-.7v1.41h-.7v.7h7v-1.4h-.7Z"/>
        <path class="cls-3" d="M19.14,14.02v-.7h-.7v-.7h-2.8v.7h2.1v.7h.7v2.8h-.7v1.41h-.7v.7h1.4v-.7h.7v-1.41h.7v-2.8h-.7ZM14.94,18.93v-.7h-.7v-2.81h.7v-1.4h.7v-.7h-1.4v.7h-.7v1.4h-.7v2.81h.7v.7h.7v.7h2.8v-.7h-2.1Z"/>
        <path class="cls-3" d="M26.84,16.82v1.41h.7v-1.41h-.7ZM26.84,12.62v1.4h.7v2.8h.7v-4.2h-1.4ZM26.14,18.23v.7h.7v-.7h-.7ZM24.04,18.93v-.7h-.7v-2.11h.7v-2.8h.7v-.7h-3.5v.7h2.1v.7h-.7v2.1h-.7v2.11h.7v.7h.7v.7h2.8v-.7h-2.1ZM21.24,14.02v-.7h-.7v2.1h1.4v-1.4h-.7Z"/>
        <path class="cls-3" d="M34.54,17.52v.71h.7v-.71h-.7ZM33.14,18.23v.7h1.4v-.7h-1.4ZM31.74,16.12v.7h1.4v-.7h-1.4ZM34.54,13.32v-.7h-2.8v.7h2.1v2.1h-.7v.7h1.4v-.7h.7v-2.1h-.7ZM31.04,18.93v-.7h-.7v-.71h1.4v-.7h-1.4v-1.4h.7v-1.4h.7v-.7h-1.4v.7h-.7v1.4h-.7v2.81h.7v.7h.7v.7h2.8v-.7h-2.1Z"/>
        <path class="cls-3" d="M42.24,13.32v-.7h-1.4v.7h.7v1.4h1.4v-1.4h-.7ZM40.14,13.32v.7h.7v-.7h-.7ZM36.64,13.32v.7h.7v-.7h-.7ZM39.44,14.02v-1.4h-2.1v.7h.7v2.1h-.7v2.1h-.7v2.11h1.4v-2.11h.7v-1.4h.7v-1.4h.7v-.7h-.7Z"/>
        <path class="cls-3" d="M48.54,13.32v-.7h-3.5v.7h-.7v1.4h.7v1.4h.7v1.4h.7v1.41h-2.1v-1.41h-1.4v1.41h.7v.7h3.5v-.7h.7v-1.41h-.7v-1.4h-.7v-1.4h-.7v-1.4h2.1v1.4h1.4v-1.4h-.7Z"/>
        <path class="cls-3" d="M52.04,9.82v1.4h.7v.7h.7v-2.1h-1.4ZM51.34,11.92v.7h1.4v-.7h-1.4Z"/>
      </g>
      <g>
        <path class="cls-3" d="M37.35,21.32v1.4h.7v-1.4h-.7ZM36.65,22.72v1.4h.7v-1.4h-.7ZM35.95,22.02v.7h.7v-.7h-.7ZM31.75,29.72v.7h.7v-.7h-.7ZM36.65,27.62v-.7h-.7v-.7h-.7v-.7h-.7v-.7h-.7v-.7h-.7v-1.4h.7v-.7h2.1v-.7h-2.8v.7h-.7v.7h-.7v2.1h.7v.7h.7v.7h.7v.7h.7v.7h.7v.7h.7v1.4h-.7v.7h-2.8v.7h3.5v-.7h.7v-.7h.7v-2.1h-.7ZM31.05,28.32v1.4h.7v-1.4h-.7ZM30.35,29.72v1.4h.7v-1.4h-.7Z"/>
        <path class="cls-3" d="M45.33,29.72v.7h.7v-.7h-.7ZM42.53,24.12v.7h2.1v2.1h-.7v1.4h-.7v.7h-.7v.7h.7v1.4h2.1v-.7h-.7v-1.4h.7v-2.1h.7v-2.8h-3.5ZM41.83,29.72v.7h.7v-.7h-.7ZM41.13,24.82v.7h1.4v-.7h-1.4ZM40.43,30.42v-.7h-.7v-2.1h.7v-1.4h.7v-.7h-1.4v.7h-.7v1.4h-.7v2.8h.7v.7h2.8v-.7h-1.4Z"/>
        <path class="cls-3" d="M54.43,29.72v.7h.7v-.7h-.7ZM54.43,24.82v-.7h-2.1v.7h.7v.7h.7v1.4h-.7v2.1h-.7v2.1h2.1v-.7h-.7v-1.4h.7v-2.1h.7v-2.1h-.7ZM51.63,24.82v.7h.7v-.7h-.7ZM50.93,25.52v.7h.7v-.7h-.7ZM47.43,24.82v.7h.7v-.7h-.7ZM50.23,26.22v-2.1h-2.1v.7h.7v2.1h-.7v2.1h-.7v2.1h1.4v-2.1h.7v-1.4h.7v-.7h.7v-.7h-.7Z"/>
        <path class="cls-3" d="M62.97,29.72v.7h.7v-.7h-.7ZM61.57,21.32v.7h1.4v2.1h-2.8v.7h2.1v2.1h-.7v1.4h-.7v.7h-.7v.7h.7v1.4h2.1v-.7h-.7v-1.4h.7v-2.1h.7v-2.8h.7v-2.8h-2.8ZM59.47,29.72v.7h.7v-.7h-.7ZM58.77,24.82v.7h1.4v-.7h-1.4ZM58.07,30.42v-.7h-.7v-2.1h.7v-1.4h.7v-.7h-1.4v.7h-.7v1.4h-.7v2.8h.7v.7h2.8v-.7h-1.4Z"/>
        <path class="cls-3" d="M72.77,25.52v-.7h-.7v-.7h-2.1v.7h1.4v.7h.7v2.8h-.7v1.4h-.7v.7h1.4v-.7h.7v-1.4h.7v-2.8h-.7ZM69.27,24.82v.7h.7v-.7h-.7ZM67.87,30.42v.7h2.8v-.7h-2.8ZM66.47,21.32v.7h1.4v2.1h-.7v2.8h-.7v2.8h.7v.7h.7v-3.5h.7v-.7h.7v-.7h-.7v-1.4h.7v-2.8h-2.8Z"/>
        <path class="cls-3" d="M80.47,25.52v-.7h-.7v-.7h-2.8v.7h2.1v.7h.7v2.8h-.7v1.4h-.7v.7h1.4v-.7h.7v-1.4h.7v-2.8h-.7ZM76.27,30.42v-.7h-.7v-2.8h.7v-1.4h.7v-.7h-1.4v.7h-.7v1.4h-.7v2.8h.7v.7h.7v.7h2.8v-.7h-2.1Z"/>
        <path class="cls-3" d="M90.27,28.32v.7h.7v-.7h-.7ZM89.57,29.02v.7h.7v-.7h-.7ZM89.57,24.12v.7h.7v.7h1.4v-1.4h-2.1ZM88.87,29.72v.7h.7v-.7h-.7ZM88.87,24.82v.7h.7v-.7h-.7ZM88.17,25.52v.7h.7v-.7h-.7ZM87.47,26.22v.7h.7v-.7h-.7ZM84.67,29.02v.7h.7v-.7h-.7ZM83.97,29.72v.7h.7v-.7h-.7ZM88.17,30.42v-1.4h-.7v-1.4h-.7v-1.4h-.7v-1.4h-.7v-.7h-1.4v.7h.7v1.4h.7v1.4h.7v1.4h.7v1.4h.7v.7h1.4v-.7h-.7ZM83.27,24.82v.7h.7v-.7h-.7ZM82.57,25.52v.7h.7v-.7h-.7ZM83.27,30.42v-.7h-1.4v1.4h2.1v-.7h-.7Z"/>
      </g>
      <rect class="cls-3" x="61" y="21.28" width="7.7" height=".7"/>
      <rect class="cls-3" x="46.74" y="25.52" width=".69" height="2.23"/>
      <rect class="cls-3" x="46.04" y="27.76" width=".69" height="1.97"/>
      <rect class="cls-3" x="35.96" y="14.02" width=".68" height="1.77"/>
      <rect class="cls-3" x="35.25" y="15.8" width=".72" height="1.73"/>
      <g>
        <g>
          <rect class="cls-3" x="85.5" y="12.83" width=".7" height=".7" transform="translate(4.74 -17.9) rotate(12.24)"/>
          <rect class="cls-3" x="84.67" y="13.37" width=".7" height=".7" transform="translate(4.84 -17.71) rotate(12.24)"/>
          <rect class="cls-3" x="83.83" y="13.9" width=".7" height=".7" transform="translate(4.93 -17.52) rotate(12.24)"/>
          <rect class="cls-3" x="83" y="14.44" width=".7" height=".7" transform="translate(5.03 -17.33) rotate(12.24)"/>
          <rect class="cls-3" x="82.17" y="14.98" width=".7" height=".7" transform="translate(5.12 -17.14) rotate(12.24)"/>
          <rect class="cls-3" x="81.34" y="15.52" width=".7" height=".7" transform="translate(5.22 -16.95) rotate(12.24)"/>
          <rect class="cls-3" x="80.5" y="16.05" width=".7" height=".7" transform="translate(5.31 -16.77) rotate(12.24)"/>
          <rect class="cls-3" x="58" y="12.34" width="11.45" height=".7" transform="translate(4.14 -13.22) rotate(12.24)"/>
          <rect class="cls-3" x="69.04" y="15.45" width="11.45" height=".7" transform="translate(5.05 -15.49) rotate(12.24)"/>
          <polygon class="cls-3" points="72.92 2.84 72.93 2.85 72.81 3.4 72.78 3.53 72.77 3.53 72.09 3.38 71.4 3.23 70.83 3.11 70.02 2.93 70.17 2.25 72.24 2.7 72.92 2.84"/>
          <polygon class="cls-3" points="81.36 4.67 81.24 5.22 81.21 5.36 74.96 4 74.84 3.98 74.28 3.86 74.27 3.85 74.15 3.83 73.59 3.71 73.47 3.68 73.46 3.68 73.49 3.55 73.61 2.99 73.62 3 73.74 3.02 74.3 3.14 74.42 3.17 74.43 3.17 75.11 3.32 81.36 4.67"/>
          <rect class="cls-3" x="81" y="6.56" width="11.45" height=".7" transform="translate(3.44 -18.23) rotate(12.24)"/>
          <rect class="cls-3" x="92.16" y="8.54" width=".7" height=".7" transform="translate(3.99 -19.41) rotate(12.24)"/>
          <rect class="cls-3" x="91.33" y="9.07" width=".7" height=".7" transform="translate(4.08 -19.22) rotate(12.24)"/>
          <rect class="cls-3" x="90.5" y="9.61" width=".7" height=".7" transform="translate(4.18 -19.03) rotate(12.24)"/>
          <rect class="cls-3" x="89.66" y="10.15" width=".7" height=".7" transform="translate(4.27 -18.84) rotate(12.24)"/>
          <rect class="cls-3" x="88.83" y="10.68" width=".7" height=".7" transform="translate(4.37 -18.65) rotate(12.24)"/>
          <rect class="cls-3" x="88" y="11.22" width=".7" height=".7" transform="translate(4.46 -18.46) rotate(12.24)"/>
          <rect class="cls-3" x="87.17" y="11.76" width=".7" height=".7" transform="translate(4.56 -18.28) rotate(12.24)"/>
          <rect class="cls-3" x="86.33" y="12.29" width=".7" height=".7" transform="translate(4.65 -18.09) rotate(12.24)"/>
          <rect class="cls-3" x="62.59" y="7.14" width=".7" height=".7" transform="translate(3.02 -13.17) rotate(12.24)"/>
          <rect class="cls-3" x="61.75" y="7.68" width=".7" height=".7" transform="translate(3.11 -12.98) rotate(12.24)"/>
          <rect class="cls-3" x="60.92" y="8.22" width=".7" height=".7" transform="translate(3.21 -12.79) rotate(12.24)"/>
          <rect class="cls-3" x="60.09" y="8.75" width=".7" height=".7" transform="translate(3.3 -12.6) rotate(12.24)"/>
          <rect class="cls-3" x="59.26" y="9.29" width=".7" height=".7" transform="translate(3.4 -12.42) rotate(12.24)"/>
          <rect class="cls-3" x="58.42" y="9.83" width=".7" height=".7" transform="translate(3.49 -12.23) rotate(12.24)"/>
          <rect class="cls-3" x="57.59" y="10.36" width=".7" height=".7" transform="translate(3.59 -12.04) rotate(12.24)"/>
          <rect class="cls-3" x="69.25" y="2.85" width=".7" height=".7" transform="translate(2.26 -14.68) rotate(12.24)"/>
          <rect class="cls-3" x="68.42" y="3.39" width=".7" height=".7" transform="translate(2.35 -14.49) rotate(12.24)"/>
          <rect class="cls-3" x="67.58" y="3.92" width=".7" height=".7" transform="translate(2.45 -14.3) rotate(12.24)"/>
          <rect class="cls-3" x="66.75" y="4.46" width=".7" height=".7" transform="translate(2.54 -14.11) rotate(12.24)"/>
          <rect class="cls-3" x="65.92" y="5" width=".7" height=".7" transform="translate(2.64 -13.93) rotate(12.24)"/>
          <rect class="cls-3" x="65.09" y="5.53" width=".7" height=".7" transform="translate(2.73 -13.74) rotate(12.24)"/>
          <rect class="cls-3" x="64.25" y="6.07" width=".7" height=".7" transform="translate(2.83 -13.55) rotate(12.24)"/>
          <rect class="cls-3" x="63.42" y="6.61" width=".7" height=".7" transform="translate(2.92 -13.36) rotate(12.24)"/>
        </g>
        <g>
          <rect class="cls-3" x="85.29" y="17.09" width=".7" height=".7" transform="translate(5.64 -17.76) rotate(12.24)"/>
          <rect class="cls-3" x="84.46" y="17.63" width=".7" height=".7" transform="translate(5.74 -17.57) rotate(12.24)"/>
          <rect class="cls-3" x="83.63" y="18.16" width=".7" height=".7" transform="translate(5.83 -17.38) rotate(12.24)"/>
          <rect class="cls-3" x="82.79" y="18.7" width=".7" height=".7" transform="translate(5.93 -17.19) rotate(12.24)"/>
          <rect class="cls-3" x="81.96" y="19.24" width=".7" height=".7" transform="translate(6.02 -17) rotate(12.24)"/>
          <rect class="cls-3" x="81.13" y="19.78" width=".7" height=".7" transform="translate(6.12 -16.81) rotate(12.24)"/>
          <rect class="cls-3" x="80.3" y="20.31" width=".7" height=".7" transform="translate(6.21 -16.62) rotate(12.24)"/>
          <rect class="cls-3" x="57.8" y="16.6" width="11.45" height=".7" transform="translate(5.04 -13.08) rotate(12.24)"/>
          <rect class="cls-3" x="68.84" y="19.71" width="11.45" height=".7" transform="translate(5.95 -15.35) rotate(12.24)"/>
          <rect class="cls-3" x="91.96" y="12.8" width=".7" height=".7" transform="translate(4.88 -19.27) rotate(12.24)"/>
          <rect class="cls-3" x="91.12" y="13.33" width=".7" height=".7" transform="translate(4.98 -19.08) rotate(12.24)"/>
          <rect class="cls-3" x="90.29" y="13.87" width=".7" height=".7" transform="translate(5.07 -18.89) rotate(12.24)"/>
          <rect class="cls-3" x="89.46" y="14.41" width=".7" height=".7" transform="translate(5.17 -18.7) rotate(12.24)"/>
          <rect class="cls-3" x="88.62" y="14.94" width=".7" height=".7" transform="translate(5.26 -18.51) rotate(12.24)"/>
          <rect class="cls-3" x="87.79" y="15.48" width=".7" height=".7" transform="translate(5.36 -18.32) rotate(12.24)"/>
          <rect class="cls-3" x="86.96" y="16.02" width=".7" height=".7" transform="translate(5.45 -18.13) rotate(12.24)"/>
          <rect class="cls-3" x="86.13" y="16.55" width=".7" height=".7" transform="translate(5.55 -17.95) rotate(12.24)"/>
          <rect class="cls-3" x="61.55" y="11.94" width=".7" height=".7" transform="translate(4.01 -12.84) rotate(12.24)"/>
          <rect class="cls-3" x="57.38" y="14.62" width=".7" height=".7" transform="translate(4.49 -11.9) rotate(12.24)"/>
        </g>
        <rect class="cls-3" x="92.16" y="8.54" width=".7" height=".7" transform="translate(3.99 -19.41) rotate(12.24)"/>
        <rect class="cls-3" x="92.25" y="10.73" width=".7" height="2.1" transform="translate(4.6 -19.36) rotate(12.24)"/>
        <rect class="cls-3" x="91.94" y="9.21" width=".7" height="1.4" transform="translate(4.2 -19.34) rotate(12.24)"/>
        <rect class="cls-3" x="57.53" y="13.24" width=".7" height="2.1" transform="translate(4.34 -11.94) rotate(12.24)"/>
        <rect class="cls-3" x="57.22" y="11.73" width=".7" height="1.4" transform="translate(3.94 -11.92) rotate(12.24)"/>
        <rect class="cls-3" x="78.77" y="11.91" width=".76" height=".7" transform="translate(4.4 -16.5) rotate(12.24)"/>
        <rect class="cls-3" x="80.93" y="13.08" width=".7" height=".7" transform="translate(4.69 -16.92) rotate(12.24)"/>
        <rect class="cls-3" x="80.63" y="14.46" width=".7" height=".7" transform="translate(4.98 -16.83) rotate(12.24)"/>
        <rect class="cls-3" x="81.47" y="13.92" width=".7" height=".7" transform="translate(4.88 -17.02) rotate(12.24)"/>
        <rect class="cls-3" x="82.3" y="13.38" width=".7" height=".7" transform="translate(4.79 -17.21) rotate(12.24)"/>
        <rect class="cls-3" x="81.76" y="12.55" width=".7" height=".7" transform="translate(4.6 -17.11) rotate(12.24)"/>
        <rect class="cls-3" x="80.1" y="13.62" width=".7" height=".7" transform="translate(4.79 -16.73) rotate(12.24)"/>
        <rect class="cls-3" x="83.43" y="11.47" width=".7" height=".7" transform="translate(4.41 -17.49) rotate(12.24)"/>
        <rect class="cls-3" x="83.13" y="12.84" width=".7" height=".7" transform="translate(4.69 -17.4) rotate(12.24)"/>
        <rect class="cls-3" x="83.96" y="12.31" width=".7" height=".7" transform="translate(4.6 -17.58) rotate(12.24)"/>
        <rect class="cls-3" x="84.8" y="11.77" width=".7" height=".7" transform="translate(4.5 -17.77) rotate(12.24)"/>
        <rect class="cls-3" x="84.26" y="10.94" width=".7" height=".7" transform="translate(4.32 -17.68) rotate(12.24)"/>
        <rect class="cls-3" x="85.63" y="11.23" width=".7" height=".7" transform="translate(4.41 -17.96) rotate(12.24)"/>
        <rect class="cls-3" x="85.09" y="10.4" width=".7" height=".7" transform="translate(4.22 -17.87) rotate(12.24)"/>
        <rect class="cls-3" x="86.46" y="10.7" width=".7" height=".7" transform="translate(4.31 -18.15) rotate(12.24)"/>
        <rect class="cls-3" x="82.96" y="9.55" width="3.7" height=".7" transform="translate(4.02 -17.75) rotate(12.24)"/>
        <rect class="cls-3" x="82.6" y="12.01" width=".7" height=".7" transform="translate(4.51 -17.3) rotate(12.24)"/>
        <rect class="cls-3" x="79.66" y="11.38" width=".7" height=".7" transform="translate(4.3 -16.69) rotate(12.24)"/>
        <rect class="cls-3" x="81.33" y="10.3" width=".7" height=".7" transform="translate(4.11 -17.07) rotate(12.24)"/>
        <rect class="cls-3" x="82.16" y="9.76" width=".7" height=".7" transform="translate(4.02 -17.26) rotate(12.24)"/>
        <rect class="cls-3" x="82.99" y="9.23" width=".7" height=".7" transform="translate(3.92 -17.45) rotate(12.24)"/>
        <rect class="cls-3" x="80.5" y="10.84" width=".7" height=".7" transform="translate(4.21 -16.88) rotate(12.24)"/>
        <rect class="cls-3" x="76.72" y="10.21" width="2.44" height=".7" transform="translate(4.01 -16.28) rotate(12.24)"/>
        <rect class="cls-3" x="80.11" y="9.32" width=".7" height=".7" transform="translate(3.88 -16.83) rotate(12.24)"/>
        <rect class="cls-3" x="79.35" y="8.61" width="2.31" height=".7" transform="translate(3.73 -16.86) rotate(12.24)"/>
        <rect class="cls-3" x="79.28" y="9.86" width=".7" height=".7" transform="translate(3.97 -16.65) rotate(12.24)"/>
        <rect class="cls-3" x="76.18" y="9.9" width=".7" height=".7" transform="translate(3.91 -15.99) rotate(12.24)"/>
        <rect class="cls-3" x="77.85" y="8.83" width=".7" height=".7" transform="translate(3.72 -16.37) rotate(12.24)"/>
        <rect class="cls-3" x="78.68" y="8.29" width=".7" height=".7" transform="translate(3.63 -16.56) rotate(12.24)"/>
        <rect class="cls-3" x="77.01" y="9.37" width=".7" height=".7" transform="translate(3.82 -16.18) rotate(12.24)"/>
        <rect class="cls-3" x="66.69" y="8.39" width="2.44" height=".7" transform="translate(3.4 -14.2) rotate(12.24)"/>
        <rect class="cls-3" x="70.08" y="7.5" width=".7" height=".7" transform="translate(3.26 -14.75) rotate(12.24)"/>
        <rect class="cls-3" x="69.32" y="6.79" width="2.31" height=".7" transform="translate(3.12 -14.78) rotate(12.24)"/>
        <rect class="cls-3" x="66.15" y="8.09" width=".7" height=".7" transform="translate(3.3 -13.9) rotate(12.24)"/>
        <rect class="cls-3" x="67.82" y="7.01" width=".7" height=".7" transform="translate(3.11 -14.28) rotate(12.24)"/>
        <rect class="cls-3" x="68.65" y="6.48" width=".7" height=".7" transform="translate(3.01 -14.47) rotate(12.24)"/>
        <rect class="cls-3" x="66.98" y="7.55" width=".7" height=".7" transform="translate(3.2 -14.09) rotate(12.24)"/>
        <rect class="cls-3" x="66.4" y="9.76" width="2.44" height=".7" transform="translate(3.68 -14.1) rotate(12.24)"/>
        <rect class="cls-3" x="69.78" y="8.87" width=".7" height=".7" transform="translate(3.55 -14.66) rotate(12.24)"/>
        <rect class="cls-3" x="70.61" y="8.34" width=".7" height=".7" transform="translate(3.45 -14.84) rotate(12.24)"/>
        <rect class="cls-3" x="74.27" y="6.26" width=".7" height=".7" transform="translate(3.1 -15.67) rotate(12.24)"/>
        <rect class="cls-3" x="75.89" y="5.89" width=".7" height=".7" transform="translate(3.06 -16.02) rotate(12.24)"/>
        <rect class="cls-3" x="76.72" y="5.36" width=".7" height=".7" transform="translate(2.96 -16.21) rotate(12.24)"/>
        <rect class="cls-3" x="68.95" y="9.41" width=".7" height=".7" transform="translate(3.64 -14.47) rotate(12.24)"/>
        <rect class="cls-3" x="65.85" y="9.46" width=".7" height=".7" transform="translate(3.58 -13.81) rotate(12.24)"/>
        <rect class="cls-3" x="67.52" y="8.38" width=".7" height=".7" transform="translate(3.39 -14.19) rotate(12.24)"/>
        <rect class="cls-3" x="68.56" y="7.89" width=".7" height=".7" transform="translate(3.31 -14.42) rotate(12.24)"/>
        <rect class="cls-3" x="66.69" y="8.92" width=".7" height=".7" transform="translate(3.49 -14) rotate(12.24)"/>
        <rect class="cls-3" x="76.37" y="13.85" width="3.63" height=".7" transform="translate(4.79 -16.25) rotate(12.24)"/>
        <rect class="cls-3" x="74.36" y="11.39" width="4.82" height=".7" transform="translate(4.23 -16) rotate(12.24)"/>
        <rect class="cls-3" x="73.57" y="11.49" width=".7" height=".7" transform="translate(4.19 -15.4) rotate(12.24)"/>
        <rect class="cls-3" x="72.74" y="12.03" width=".7" height=".7" transform="translate(4.28 -15.21) rotate(12.24)"/>
        <rect class="cls-3" x="71.77" y="12.99" width="4.9" height=".7" transform="translate(4.51 -15.43) rotate(12.24)"/>
        <rect class="cls-3" x="72.36" y="14.19" width="8.23" height=".7" transform="translate(4.82 -15.88) rotate(12.24)"/>
        <rect class="cls-3" x="63.42" y="8.22" width=".76" height=".7" transform="translate(3.27 -13.33) rotate(12.24)"/>
        <rect class="cls-3" x="69.95" y="10.34" width=".7" height=".7" transform="translate(3.86 -14.66) rotate(12.24)"/>
        <rect class="cls-3" x="69.65" y="11.72" width=".7" height=".7" transform="translate(4.15 -14.56) rotate(12.24)"/>
        <rect class="cls-3" x="70.49" y="11.18" width=".7" height=".7" transform="translate(4.05 -14.75) rotate(12.24)"/>
        <rect class="cls-3" x="71.32" y="10.64" width=".7" height=".7" transform="translate(3.96 -14.94) rotate(12.24)"/>
        <rect class="cls-3" x="70.78" y="9.81" width=".7" height=".7" transform="translate(3.77 -14.85) rotate(12.24)"/>
        <rect class="cls-3" x="69.12" y="10.88" width=".7" height=".7" transform="translate(3.96 -14.47) rotate(12.24)"/>
        <rect class="cls-3" x="72.45" y="8.73" width=".7" height=".7" transform="translate(3.58 -15.22) rotate(12.24)"/>
        <rect class="cls-3" x="72.15" y="10.1" width=".7" height=".7" transform="translate(3.86 -15.13) rotate(12.24)"/>
        <rect class="cls-3" x="72.99" y="9.57" width=".7" height=".7" transform="translate(3.77 -15.32) rotate(12.24)"/>
        <rect class="cls-3" x="73.82" y="9.03" width=".7" height=".7" transform="translate(3.67 -15.51) rotate(12.24)"/>
        <rect class="cls-3" x="66.59" y="7.48" width="7.47" height=".7" transform="translate(3.26 -14.73) rotate(12.24)"/>
        <rect class="cls-3" x="71.62" y="9.27" width=".7" height=".7" transform="translate(3.67 -15.04) rotate(12.24)"/>
        <rect class="cls-3" x="64.32" y="7.69" width=".7" height=".7" transform="translate(3.17 -13.52) rotate(12.24)"/>
        <rect class="cls-3" x="65.98" y="6.61" width=".7" height=".7" transform="translate(2.98 -13.9) rotate(12.24)"/>
        <rect class="cls-3" x="72.02" y="6.49" width=".7" height=".7" transform="translate(3.09 -15.18) rotate(12.24)"/>
        <rect class="cls-3" x="65.15" y="7.15" width=".7" height=".7" transform="translate(3.08 -13.71) rotate(12.24)"/>
        <rect class="cls-3" x="65.39" y="11.11" width="3.63" height=".7" transform="translate(3.96 -13.98) rotate(12.24)"/>
        <rect class="cls-3" x="62.59" y="8.75" width=".7" height=".7" transform="translate(3.36 -13.13) rotate(12.24)"/>
        <rect class="cls-3" x="61.76" y="9.29" width=".7" height=".7" transform="translate(3.45 -12.95) rotate(12.24)"/>
        <rect class="cls-3" x="60.8" y="10.25" width="4.9" height=".7" transform="translate(3.68 -13.17) rotate(12.24)"/>
        <rect class="cls-3" x="61.38" y="11.45" width="8.23" height=".7" transform="translate(3.99 -13.61) rotate(12.24)"/>
        <rect class="cls-3" x="72.9" y="5.92" width=".7" height=".7" transform="translate(2.99 -15.38) rotate(12.24)"/>
        <rect class="cls-3" x="72.07" y="6.46" width=".7" height=".7" transform="translate(3.09 -15.2) rotate(12.24)"/>
        <rect class="cls-3" x="73.45" y=".07" width=".7" height=".7" transform="translate(1.77 -15.63) rotate(12.24)"/>
        <polygon class="cls-3" points="74.77 .96 74.65 1.52 74.65 1.53 74.62 1.65 73.94 1.5 73.93 1.5 73.37 1.38 73.25 1.35 72.56 1.2 72.71 .52 73.39 .67 74.07 .81 74.21 .84 74.77 .96"/>
        <rect class="cls-3" x="71.53" y="5.63" width=".7" height=".7" transform="translate(2.9 -15.1) rotate(12.24)"/>
        <rect class="cls-3" x="73.9" y="3.88" width=".7" height="2.23" transform="translate(2.75 -15.63) rotate(12.24)"/>
        <rect class="cls-3" x="73.69" y="1.55" width=".7" height="2.23" transform="translate(2.25 -15.63) rotate(12.24)"/>
        <rect class="cls-3" x="71.16" y="3.28" width=".7" height="2.23" transform="translate(140.46 23.85) rotate(-167.76)"/>
        <rect class="cls-3" x="72.31" y="1.25" width=".7" height="2.23" transform="translate(143.18 20.08) rotate(-167.76)"/>
        <rect class="cls-1" x="68.71" y="7.21" width=".7" height=".7" transform="translate(3.17 -14.47) rotate(12.24)"/>
        <rect class="cls-1" x="70.08" y="7.5" width=".7" height=".7" transform="translate(3.26 -14.75) rotate(12.24)"/>
      </g>
    </g>
    <g>
      <g>
        <g>
          <rect class="cls-2" x="19.55" y="38.34" width=".7" height=".7" transform="translate(27.59 81.52) rotate(-162.96)"/>
          <rect class="cls-2" x="19.09" y="37.47" width=".7" height=".7" transform="translate(26.94 79.67) rotate(-162.96)"/>
          <rect class="cls-2" x="19.92" y="39.83" width="4.86" height=".7" transform="translate(31.96 85.14) rotate(-162.96)"/>
          <rect class="cls-2" x="18.16" y="35.71" width=".7" height=".7" transform="translate(25.64 75.97) rotate(-162.96)"/>
          <rect class="cls-2" x="17.7" y="34.84" width=".7" height=".7" transform="translate(24.99 74.12) rotate(-162.96)"/>
          <rect class="cls-2" x="14.8" y="33.6" width="3.18" height=".7" transform="translate(22.12 71.21) rotate(-162.96)"/>
          <rect class="cls-2" x="16.36" y="28.85" width="7.36" height=".7" transform="translate(30.64 62.99) rotate(-162.96)"/>
          <rect class="cls-2" x="18.62" y="36.59" width=".7" height=".7" transform="translate(26.29 77.82) rotate(-162.96)"/>
          <rect class="cls-2" x="27.49" y="38.57" width=".7" height=".7" transform="translate(43.06 84.3) rotate(-162.96)"/>
          <rect class="cls-2" x="27.03" y="37.7" width=".7" height=".7" transform="translate(42.41 82.45) rotate(-162.96)"/>
          <rect class="cls-2" x="26.1" y="35.95" width=".7" height=".7" transform="translate(41.11 78.75) rotate(-162.96)"/>
          <rect class="cls-2" x="25.64" y="35.07" width=".7" height=".7" transform="translate(40.46 76.91) rotate(-162.96)"/>
          <rect class="cls-2" x="26.57" y="36.82" width=".7" height=".7" transform="translate(41.76 80.6) rotate(-162.96)"/>
          <rect class="cls-2" x="25.19" y="34.2" width=".7" height=".7" transform="translate(39.84 75.07) rotate(-162.96)"/>
          <rect class="cls-2" x="24.73" y="33.33" width=".7" height=".7" transform="translate(39.19 73.23) rotate(-162.96)"/>
          <rect class="cls-2" x="23.8" y="31.58" width=".7" height=".7" transform="translate(37.89 69.53) rotate(-162.96)"/>
          <rect class="cls-2" x="23.34" y="30.7" width=".7" height=".7" transform="translate(37.24 67.68) rotate(-162.96)"/>
          <rect class="cls-2" x="24.26" y="32.45" width=".7" height=".7" transform="translate(38.54 71.38) rotate(-162.96)"/>
          <rect class="cls-2" x="24.87" y="39.97" width=".7" height=".7" transform="translate(12.92 -5.62) rotate(17.04)"/>
          <rect class="cls-2" x="25.74" y="39.51" width=".7" height=".7" transform="translate(12.82 -5.9) rotate(17.04)"/>
          <rect class="cls-2" x="26.62" y="39.04" width=".7" height=".7" transform="translate(12.72 -6.17) rotate(17.04)"/>
        </g>
        <g>
          <rect class="cls-2" x="7.44" y="34.63" width=".7" height=".7" transform="translate(10.59 -.75) rotate(17.04)"/>
          <rect class="cls-2" x="8.32" y="34.16" width=".7" height=".7" transform="translate(10.49 -1.02) rotate(17.04)"/>
          <rect class="cls-2" x="2.5" y="34.49" width="4.86" height=".7" transform="translate(10.42 .09) rotate(17.04)"/>
          <rect class="cls-2" x="10.06" y="33.23" width=".7" height=".7" transform="translate(10.3 -1.58) rotate(17.04)"/>
          <rect class="cls-2" x="10.94" y="32.77" width=".7" height=".7" transform="translate(10.2 -1.85) rotate(17.04)"/>
          <rect class="cls-2" x="11.76" y="32.67" width="3.18" height=".7" transform="translate(10.26 -2.46) rotate(17.04)"/>
          <rect class="cls-2" x="9.31" y="26.69" width="7.36" height=".7" transform="translate(8.49 -2.62) rotate(17.04)"/>
          <rect class="cls-2" x="9.19" y="33.7" width=".7" height=".7" transform="translate(10.39 -1.3) rotate(17.04)"/>
          <rect class="cls-2" x=".73" y="30.37" width=".7" height=".7" transform="translate(9.05 1.03) rotate(17.04)"/>
          <rect class="cls-2" x="1.61" y="29.91" width=".7" height=".7" transform="translate(8.95 .75) rotate(17.04)"/>
          <rect class="cls-2" x="3.36" y="28.98" width=".7" height=".7" transform="translate(8.76 .2) rotate(17.04)"/>
          <rect class="cls-2" x="4.23" y="28.51" width=".7" height=".7" transform="translate(8.66 -.08) rotate(17.04)"/>
          <rect class="cls-2" x="2.48" y="29.44" width=".7" height=".7" transform="translate(8.85 .48) rotate(17.04)"/>
          <rect class="cls-2" x="5.09" y="28.04" width=".7" height=".7" transform="translate(8.56 -.35) rotate(17.04)"/>
          <rect class="cls-2" x="5.96" y="27.58" width=".7" height=".7" transform="translate(8.46 -.62) rotate(17.04)"/>
          <rect class="cls-2" x="7.71" y="26.65" width=".7" height=".7" transform="translate(8.26 -1.18) rotate(17.04)"/>
          <rect class="cls-2" x="8.59" y="26.18" width=".7" height=".7" transform="translate(8.17 -1.45) rotate(17.04)"/>
          <rect class="cls-2" x="6.84" y="27.11" width=".7" height=".7" transform="translate(8.36 -.9) rotate(17.04)"/>
          <rect class="cls-2" x="2.12" y="33" width=".7" height=".7" transform="translate(-4.93 65.96) rotate(-162.96)"/>
          <rect class="cls-2" x="1.66" y="32.12" width=".7" height=".7" transform="translate(-5.59 64.11) rotate(-162.96)"/>
          <rect class="cls-2" x="1.19" y="31.25" width=".7" height=".7" transform="translate(-6.24 62.27) rotate(-162.96)"/>
        </g>
        <g>
          <rect class="cls-2" x="19.19" y="41.9" width=".7" height=".7" transform="translate(25.85 88.37) rotate(-162.96)"/>
          <rect class="cls-2" x="18.73" y="41.02" width=".7" height=".7" transform="translate(25.2 86.52) rotate(-162.96)"/>
          <rect class="cls-2" x="19.57" y="43.38" width="4.86" height=".7" transform="translate(30.22 91.99) rotate(-162.96)"/>
          <rect class="cls-2" x="17.8" y="39.27" width=".7" height=".7" transform="translate(23.9 82.82) rotate(-162.96)"/>
          <rect class="cls-2" x="17.34" y="38.4" width=".7" height=".7" transform="translate(23.25 80.98) rotate(-162.96)"/>
          <rect class="cls-2" x="14.45" y="37.16" width="3.18" height=".7" transform="translate(20.38 78.07) rotate(-162.96)"/>
          <rect class="cls-2" x="11.4" y="36.22" width="3.18" height=".7" transform="translate(14.7 75.35) rotate(-162.96)"/>
          <rect class="cls-2" x="18.27" y="40.15" width=".7" height=".7" transform="translate(24.55 84.67) rotate(-162.96)"/>
          <rect class="cls-2" x="27.14" y="42.13" width=".7" height=".7" transform="translate(41.32 91.15) rotate(-162.96)"/>
          <rect class="cls-2" x="26.67" y="41.26" width=".7" height=".7" transform="translate(40.67 89.31) rotate(-162.96)"/>
          <rect class="cls-2" x="24.51" y="43.53" width=".7" height=".7" transform="translate(13.95 -5.36) rotate(17.04)"/>
          <rect class="cls-2" x="25.39" y="43.06" width=".7" height=".7" transform="translate(13.85 -5.64) rotate(17.04)"/>
          <rect class="cls-2" x="26.26" y="42.6" width=".7" height=".7" transform="translate(13.75 -5.91) rotate(17.04)"/>
        </g>
        <g>
          <rect class="cls-2" x="7.08" y="38.19" width=".7" height=".7" transform="translate(11.62 -.49) rotate(17.04)"/>
          <rect class="cls-2" x="7.96" y="37.72" width=".7" height=".7" transform="translate(11.52 -.76) rotate(17.04)"/>
          <rect class="cls-2" x="2.14" y="38.04" width="4.86" height=".7" transform="translate(11.45 .35) rotate(17.04)"/>
          <rect class="cls-2" x="9.71" y="36.79" width=".7" height=".7" transform="translate(11.32 -1.32) rotate(17.04)"/>
          <rect class="cls-2" x="10.58" y="36.33" width=".7" height=".7" transform="translate(11.23 -1.59) rotate(17.04)"/>
          <rect class="cls-2" x="8.83" y="37.26" width=".7" height=".7" transform="translate(11.42 -1.04) rotate(17.04)"/>
          <rect class="cls-2" x=".72" y="31.63" width=".7" height="3.06" transform="translate(9.76 1.14) rotate(17.04)"/>
          <rect class="cls-2" x="1.76" y="36.56" width=".7" height=".7" transform="translate(-6.68 72.82) rotate(-162.96)"/>
          <rect class="cls-2" x="1.3" y="35.68" width=".7" height=".7" transform="translate(-7.33 70.97) rotate(-162.96)"/>
          <rect class="cls-2" x=".84" y="34.81" width=".7" height=".7" transform="translate(-7.98 69.12) rotate(-162.96)"/>
        </g>
        <rect class="cls-2" x="26.98" y="39.2" width=".7" height="2.8" transform="translate(13.1 -6.23) rotate(17.04)"/>
        <g>
          <rect class="cls-2" x="10.15" y="27.43" width=".7" height=".7" transform="translate(12.24 57.44) rotate(-162.66)"/>
          <rect class="cls-2" x="11.02" y="26.97" width=".7" height=".7" transform="translate(14.09 56.8) rotate(-162.66)"/>
          <rect class="cls-2" x="10.24" y="29.54" width=".7" height=".7" transform="translate(11.79 61.58) rotate(-162.66)"/>
          <rect class="cls-2" x="11.48" y="27.85" width=".7" height=".7" transform="translate(14.73 58.65) rotate(-162.66)"/>
          <polygon class="cls-2" points="9.41 27.82 10.08 28.03 9.87 28.67 9.2 28.46 9.41 27.82"/>
          <polygon class="cls-2" points="9.87 28.66 10.54 28.86 10.35 29.45 9.68 29.24 9.87 28.66"/>
          <polygon class="cls-2" points="12.76 28.86 12.09 28.65 11.89 29.29 12.56 29.5 12.76 28.86"/>
          <polygon class="cls-2" points="11.89 29.28 11.22 29.07 11.03 29.66 11.7 29.86 11.89 29.28"/>
          <rect class="cls-2" x="9.85" y="30.8" width=".7" height=".7" transform="translate(10.65 63.92) rotate(-162.66)"/>
          <polygon class="cls-2" points="9.48 29.92 10.15 30.12 9.96 30.71 9.29 30.5 9.48 29.92"/>
          <polygon class="cls-2" points="11.5 30.54 10.83 30.33 10.64 30.92 11.31 31.12 11.5 30.54"/>
          <rect class="cls-2" x="8.91" y="29.13" width=".7" height=".7" transform="translate(9.31 60.39) rotate(-162.66)"/>
          <polygon class="cls-2" points="11.72 29.87 12.39 30.08 12.17 30.74 11.5 30.54 11.72 29.87"/>
        </g>
        <g>
          <rect class="cls-2" x="20.45" y="30.55" width=".7" height=".7" transform="translate(31.46 66.59) rotate(-162.66)"/>
          <rect class="cls-2" x="21.33" y="30.09" width=".7" height=".7" transform="translate(33.31 65.96) rotate(-162.66)"/>
          <rect class="cls-2" x="20.54" y="32.66" width=".7" height=".7" transform="translate(31.01 70.74) rotate(-162.66)"/>
          <rect class="cls-2" x="21.79" y="30.97" width=".7" height=".7" transform="translate(33.95 67.81) rotate(-162.66)"/>
          <polygon class="cls-2" points="19.72 30.94 20.38 31.14 20.18 31.78 19.51 31.58 19.72 30.94"/>
          <polygon class="cls-2" points="20.18 31.77 20.85 31.98 20.66 32.56 19.99 32.36 20.18 31.77"/>
          <polygon class="cls-2" points="23.07 31.97 22.4 31.77 22.19 32.4 22.86 32.61 23.07 31.97"/>
          <polygon class="cls-2" points="22.2 32.39 21.53 32.19 21.34 32.77 22.01 32.98 22.2 32.39"/>
          <rect class="cls-2" x="20.16" y="33.91" width=".7" height=".7" transform="translate(29.87 73.08) rotate(-162.66)"/>
          <polygon class="cls-2" points="19.79 33.03 20.46 33.24 20.27 33.82 19.6 33.61 19.79 33.03"/>
          <polygon class="cls-2" points="21.81 33.65 21.14 33.44 20.95 34.03 21.62 34.24 21.81 33.65"/>
          <rect class="cls-2" x="19.22" y="32.25" width=".7" height=".7" transform="translate(28.53 69.55) rotate(-162.66)"/>
          <polygon class="cls-2" points="22.03 32.99 22.7 33.19 22.48 33.86 21.81 33.65 22.03 32.99"/>
        </g>
        <rect class="cls-2" x="14.78" y="29.58" width=".7" height=".7" transform="translate(20.83 62.99) rotate(-162.96)"/>
        <rect class="cls-2" x="13.43" y="29.17" width=".7" height=".7" transform="translate(18.31 61.78) rotate(-162.96)"/>
        <rect class="cls-2" x="15.45" y="29.79" width=".7" height=".7" transform="translate(22.08 63.58) rotate(-162.96)"/>
        <rect class="cls-2" x="16.12" y="29.99" width=".7" height=".7" transform="translate(23.33 64.18) rotate(-162.96)"/>
        <rect class="cls-2" x="17.45" y="30.4" width=".7" height=".7" transform="translate(25.8 65.37) rotate(-162.96)"/>
        <g>
          <rect class="cls-2" x="23.66" y="34.42" width=".7" height=".7" transform="translate(36.78 75.05) rotate(-162.96)"/>
          <rect class="cls-2" x="23.45" y="35.09" width=".7" height=".7" transform="translate(36.18 76.3) rotate(-162.96)"/>
          <rect class="cls-2" x="24.12" y="35.29" width=".7" height=".7" transform="translate(37.43 76.9) rotate(-162.96)"/>
          <rect class="cls-2" x="22.79" y="34.88" width=".7" height=".7" transform="translate(34.93 75.7) rotate(-162.96)"/>
          <rect class="cls-2" x="23.25" y="35.76" width=".7" height=".7" transform="translate(35.58 77.55) rotate(-162.96)"/>
          <rect class="cls-2" x="21.91" y="35.35" width=".7" height=".7" transform="translate(33.08 76.35) rotate(-162.96)"/>
          <rect class="cls-2" x="21.7" y="36.02" width=".7" height=".7" transform="translate(32.49 77.61) rotate(-162.96)"/>
          <rect class="cls-2" x="22.37" y="36.22" width=".7" height=".7" transform="translate(33.74 78.2) rotate(-162.96)"/>
          <rect class="cls-2" x="21.04" y="35.81" width=".7" height=".7" transform="translate(31.24 77.01) rotate(-162.96)"/>
          <rect class="cls-2" x="21.5" y="36.69" width=".7" height=".7" transform="translate(31.89 78.86) rotate(-162.96)"/>
          <rect class="cls-2" x="24.59" y="36.17" width=".7" height=".7" transform="translate(38.08 78.74) rotate(-162.96)"/>
          <rect class="cls-2" x="24.38" y="36.84" width=".7" height=".7" transform="translate(37.48 80) rotate(-162.96)"/>
          <rect class="cls-2" x="25.05" y="37.05" width=".7" height=".7" transform="translate(38.73 80.59) rotate(-162.96)"/>
          <rect class="cls-2" x="23.71" y="36.63" width=".7" height=".7" transform="translate(36.23 79.4) rotate(-162.96)"/>
          <rect class="cls-2" x="24.18" y="37.51" width=".7" height=".7" transform="translate(36.89 81.25) rotate(-162.96)"/>
          <rect class="cls-2" x="22.84" y="37.1" width=".7" height=".7" transform="translate(34.39 80.05) rotate(-162.96)"/>
          <rect class="cls-2" x="23.3" y="37.98" width=".7" height=".7" transform="translate(35.04 81.9) rotate(-162.96)"/>
          <rect class="cls-2" x="21.96" y="37.57" width=".7" height=".7" transform="translate(32.54 80.71) rotate(-162.96)"/>
          <rect class="cls-2" x="22.43" y="38.44" width=".7" height=".7" transform="translate(33.19 82.55) rotate(-162.96)"/>
          <rect class="cls-2" x="22.63" y="37.77" width=".7" height=".7" transform="translate(33.79 81.3) rotate(-162.96)"/>
        </g>
        <g>
          <rect class="cls-2" x="6.16" y="29.3" width=".7" height=".7" transform="translate(4.06 59.91) rotate(-162.96)"/>
          <rect class="cls-2" x="5.96" y="29.97" width=".7" height=".7" transform="translate(3.46 61.16) rotate(-162.96)"/>
          <rect class="cls-2" x="6.63" y="30.18" width=".7" height=".7" transform="translate(4.71 61.76) rotate(-162.96)"/>
          <rect class="cls-2" x="5.29" y="29.77" width=".7" height=".7" transform="translate(2.21 60.56) rotate(-162.96)"/>
          <rect class="cls-2" x="5.75" y="30.64" width=".7" height=".7" transform="translate(2.86 62.41) rotate(-162.96)"/>
          <rect class="cls-2" x="4.41" y="30.23" width=".7" height=".7" transform="translate(.36 61.22) rotate(-162.96)"/>
          <rect class="cls-2" x="4.21" y="30.9" width=".7" height=".7" transform="translate(-.24 62.47) rotate(-162.96)"/>
          <rect class="cls-2" x="4.88" y="31.11" width=".7" height=".7" transform="translate(1.01 63.06) rotate(-162.96)"/>
          <rect class="cls-2" x="3.54" y="30.7" width=".7" height=".7" transform="translate(-1.49 61.87) rotate(-162.96)"/>
          <rect class="cls-2" x="4" y="31.57" width=".7" height=".7" transform="translate(-.84 63.72) rotate(-162.96)"/>
          <rect class="cls-2" x="7.09" y="31.05" width=".7" height=".7" transform="translate(5.36 63.61) rotate(-162.96)"/>
          <rect class="cls-2" x="6.89" y="31.72" width=".7" height=".7" transform="translate(4.76 64.86) rotate(-162.96)"/>
          <rect class="cls-2" x="7.56" y="31.93" width=".7" height=".7" transform="translate(6.01 65.45) rotate(-162.96)"/>
          <rect class="cls-2" x="6.22" y="31.52" width=".7" height=".7" transform="translate(3.51 64.26) rotate(-162.96)"/>
          <rect class="cls-2" x="6.68" y="32.39" width=".7" height=".7" transform="translate(4.16 66.11) rotate(-162.96)"/>
          <rect class="cls-2" x="5.34" y="31.98" width=".7" height=".7" transform="translate(1.66 64.91) rotate(-162.96)"/>
          <rect class="cls-2" x="5.81" y="32.86" width=".7" height=".7" transform="translate(2.31 66.76) rotate(-162.96)"/>
          <rect class="cls-2" x="4.47" y="32.45" width=".7" height=".7" transform="translate(-.18 65.57) rotate(-162.96)"/>
          <rect class="cls-2" x="4.93" y="33.32" width=".7" height=".7" transform="translate(.47 67.42) rotate(-162.96)"/>
          <rect class="cls-2" x="5.14" y="32.65" width=".7" height=".7" transform="translate(1.07 66.16) rotate(-162.96)"/>
        </g>
      </g>
      <g>
        <g>
          <rect class="cls-3" x="19.27" y="36.83" width=".7" height=".7" transform="translate(27.48 78.49) rotate(-162.96)"/>
          <rect class="cls-3" x="18.8" y="35.96" width=".7" height=".7" transform="translate(26.83 76.64) rotate(-162.96)"/>
          <rect class="cls-3" x="19.64" y="38.32" width="4.86" height=".7" transform="translate(31.84 82.11) rotate(-162.96)"/>
          <rect class="cls-3" x="17.87" y="34.21" width=".7" height=".7" transform="translate(25.52 72.94) rotate(-162.96)"/>
          <rect class="cls-3" x="17.41" y="33.33" width=".7" height=".7" transform="translate(24.87 71.09) rotate(-162.96)"/>
          <rect class="cls-3" x="14.52" y="32.09" width="3.18" height=".7" transform="translate(22.01 68.18) rotate(-162.96)"/>
          <rect class="cls-3" x="16.07" y="27.34" width="7.36" height=".7" transform="translate(30.52 59.96) rotate(-162.96)"/>
          <rect class="cls-3" x="18.34" y="35.08" width=".7" height=".7" transform="translate(26.17 74.79) rotate(-162.96)"/>
          <rect class="cls-3" x="27.21" y="37.07" width=".7" height=".7" transform="translate(42.94 81.27) rotate(-162.96)"/>
          <rect class="cls-3" x="26.74" y="36.19" width=".7" height=".7" transform="translate(42.29 79.42) rotate(-162.96)"/>
          <rect class="cls-3" x="25.82" y="34.44" width=".7" height=".7" transform="translate(40.99 75.72) rotate(-162.96)"/>
          <rect class="cls-3" x="25.35" y="33.57" width=".7" height=".7" transform="translate(40.34 73.88) rotate(-162.96)"/>
          <rect class="cls-3" x="26.28" y="35.32" width=".7" height=".7" transform="translate(41.64 77.57) rotate(-162.96)"/>
          <rect class="cls-3" x="24.91" y="32.7" width=".7" height=".7" transform="translate(39.72 72.04) rotate(-162.96)"/>
          <rect class="cls-3" x="24.44" y="31.82" width=".7" height=".7" transform="translate(39.07 70.2) rotate(-162.96)"/>
          <rect class="cls-3" x="23.52" y="30.07" width=".7" height=".7" transform="translate(37.77 66.5) rotate(-162.96)"/>
          <rect class="cls-3" x="23.05" y="29.19" width=".7" height=".7" transform="translate(37.12 64.65) rotate(-162.96)"/>
          <rect class="cls-3" x="23.98" y="30.95" width=".7" height=".7" transform="translate(38.42 68.35) rotate(-162.96)"/>
          <rect class="cls-3" x="24.58" y="38.46" width=".7" height=".7" transform="translate(12.47 -5.6) rotate(17.04)"/>
          <rect class="cls-3" x="25.46" y="38" width=".7" height=".7" transform="translate(12.37 -5.88) rotate(17.04)"/>
          <rect class="cls-3" x="26.33" y="37.53" width=".7" height=".7" transform="translate(12.27 -6.16) rotate(17.04)"/>
        </g>
        <g>
          <rect class="cls-3" x="7.15" y="33.12" width=".7" height=".7" transform="translate(10.14 -.73) rotate(17.04)"/>
          <rect class="cls-3" x="8.03" y="32.66" width=".7" height=".7" transform="translate(10.04 -1.01) rotate(17.04)"/>
          <rect class="cls-3" x="2.21" y="32.98" width="4.86" height=".7" transform="translate(9.97 .1) rotate(17.04)"/>
          <rect class="cls-3" x="9.78" y="31.73" width=".7" height=".7" transform="translate(9.84 -1.56) rotate(17.04)"/>
          <rect class="cls-3" x="10.65" y="31.26" width=".7" height=".7" transform="translate(9.75 -1.84) rotate(17.04)"/>
          <rect class="cls-3" x="11.47" y="31.16" width="3.18" height=".7" transform="translate(9.81 -2.45) rotate(17.04)"/>
          <rect class="cls-3" x="9.03" y="25.19" width="7.36" height=".7" transform="translate(8.04 -2.6) rotate(17.04)"/>
          <rect class="cls-3" x="8.9" y="32.19" width=".7" height=".7" transform="translate(9.94 -1.28) rotate(17.04)"/>
          <rect class="cls-3" x=".44" y="28.87" width=".7" height=".7" transform="translate(8.6 1.05) rotate(17.04)"/>
          <rect class="cls-3" x="1.32" y="28.4" width=".7" height=".7" transform="translate(8.5 .77) rotate(17.04)"/>
          <rect class="cls-3" x="3.07" y="27.47" width=".7" height=".7" transform="translate(8.3 .22) rotate(17.04)"/>
          <rect class="cls-3" x="3.94" y="27.01" width=".7" height=".7" transform="translate(8.2 -.06) rotate(17.04)"/>
          <rect class="cls-3" x="2.19" y="27.94" width=".7" height=".7" transform="translate(8.4 .5) rotate(17.04)"/>
          <rect class="cls-3" x="4.8" y="26.54" width=".7" height=".7" transform="translate(8.1 -.33) rotate(17.04)"/>
          <rect class="cls-3" x="5.68" y="26.07" width=".7" height=".7" transform="translate(8.01 -.61) rotate(17.04)"/>
          <rect class="cls-3" x="7.42" y="25.14" width=".7" height=".7" transform="translate(7.81 -1.16) rotate(17.04)"/>
          <rect class="cls-3" x="8.3" y="24.67" width=".7" height=".7" transform="translate(7.71 -1.44) rotate(17.04)"/>
          <rect class="cls-3" x="6.55" y="25.6" width=".7" height=".7" transform="translate(7.91 -.88) rotate(17.04)"/>
          <rect class="cls-3" x="1.84" y="31.49" width=".7" height=".7" transform="translate(-5.05 62.93) rotate(-162.96)"/>
          <rect class="cls-3" x="1.37" y="30.62" width=".7" height=".7" transform="translate(-5.7 61.08) rotate(-162.96)"/>
          <rect class="cls-3" x=".91" y="29.74" width=".7" height=".7" transform="translate(-6.35 59.24) rotate(-162.96)"/>
        </g>
        <g>
          <rect class="cls-3" x="18.91" y="40.39" width=".7" height=".7" transform="translate(25.73 85.34) rotate(-162.96)"/>
          <rect class="cls-3" x="18.44" y="39.52" width=".7" height=".7" transform="translate(25.08 83.49) rotate(-162.96)"/>
          <rect class="cls-3" x="19.28" y="41.88" width="4.86" height=".7" transform="translate(30.1 88.96) rotate(-162.96)"/>
          <rect class="cls-3" x="17.52" y="37.77" width=".7" height=".7" transform="translate(23.78 79.79) rotate(-162.96)"/>
          <rect class="cls-3" x="17.05" y="36.89" width=".7" height=".7" transform="translate(23.13 77.95) rotate(-162.96)"/>
          <rect class="cls-3" x="14.16" y="35.65" width="3.18" height=".7" transform="translate(20.26 75.04) rotate(-162.96)"/>
          <rect class="cls-3" x="11.12" y="34.72" width="3.18" height=".7" transform="translate(14.58 72.32) rotate(-162.96)"/>
          <rect class="cls-3" x="17.98" y="38.64" width=".7" height=".7" transform="translate(24.43 81.64) rotate(-162.96)"/>
          <rect class="cls-3" x="26.85" y="40.63" width=".7" height=".7" transform="translate(41.2 88.12) rotate(-162.96)"/>
          <rect class="cls-3" x="26.39" y="39.75" width=".7" height=".7" transform="translate(40.55 86.28) rotate(-162.96)"/>
          <rect class="cls-3" x="24.23" y="42.02" width=".7" height=".7" transform="translate(13.49 -5.34) rotate(17.04)"/>
          <rect class="cls-3" x="25.1" y="41.56" width=".7" height=".7" transform="translate(13.4 -5.62) rotate(17.04)"/>
          <rect class="cls-3" x="25.98" y="41.09" width=".7" height=".7" transform="translate(13.3 -5.89) rotate(17.04)"/>
        </g>
        <g>
          <rect class="cls-3" x="6.8" y="36.68" width=".7" height=".7" transform="translate(11.16 -.47) rotate(17.04)"/>
          <rect class="cls-3" x="7.67" y="36.22" width=".7" height=".7" transform="translate(11.07 -.75) rotate(17.04)"/>
          <rect class="cls-3" x="1.85" y="36.54" width="4.86" height=".7" transform="translate(11 .36) rotate(17.04)"/>
          <rect class="cls-3" x="9.42" y="35.28" width=".7" height=".7" transform="translate(10.87 -1.3) rotate(17.04)"/>
          <rect class="cls-3" x="10.3" y="34.82" width=".7" height=".7" transform="translate(10.77 -1.58) rotate(17.04)"/>
          <rect class="cls-3" x="8.55" y="35.75" width=".7" height=".7" transform="translate(10.97 -1.02) rotate(17.04)"/>
          <rect class="cls-3" x=".43" y="30.12" width=".7" height="3.06" transform="translate(9.31 1.16) rotate(17.04)"/>
          <rect class="cls-3" x="1.48" y="35.05" width=".7" height=".7" transform="translate(-6.79 69.79) rotate(-162.96)"/>
          <rect class="cls-3" x="1.02" y="34.18" width=".7" height=".7" transform="translate(-7.44 67.94) rotate(-162.96)"/>
          <rect class="cls-3" x=".55" y="33.3" width=".7" height=".7" transform="translate(-8.1 66.09) rotate(-162.96)"/>
        </g>
        <rect class="cls-3" x="26.7" y="37.69" width=".7" height="2.8" transform="translate(12.64 -6.21) rotate(17.04)"/>
        <g>
          <rect class="cls-3" x="9.86" y="25.93" width=".7" height=".7" transform="translate(12.13 54.41) rotate(-162.66)"/>
          <rect class="cls-3" x="10.74" y="25.47" width=".7" height=".7" transform="translate(13.98 53.77) rotate(-162.66)"/>
          <rect class="cls-3" x="9.95" y="28.04" width=".7" height=".7" transform="translate(11.68 58.55) rotate(-162.66)"/>
          <rect class="cls-3" x="11.2" y="26.35" width=".7" height=".7" transform="translate(14.62 55.62) rotate(-162.66)"/>
          <polygon class="cls-3" points="9.12 26.32 9.79 26.52 9.58 27.16 8.91 26.96 9.12 26.32"/>
          <polygon class="cls-3" points="9.59 27.15 10.26 27.36 10.06 27.94 9.4 27.74 9.59 27.15"/>
          <polygon class="cls-3" points="12.48 27.35 11.81 27.14 11.6 27.78 12.27 27.99 12.48 27.35"/>
          <polygon class="cls-3" points="11.6 27.77 10.93 27.57 10.74 28.15 11.41 28.36 11.6 27.77"/>
          <rect class="cls-3" x="9.56" y="29.29" width=".7" height=".7" transform="translate(10.54 60.89) rotate(-162.66)"/>
          <polygon class="cls-3" points="9.2 28.41 9.87 28.62 9.67 29.2 9.01 28.99 9.2 28.41"/>
          <polygon class="cls-3" points="11.21 29.03 10.55 28.82 10.35 29.41 11.02 29.62 11.21 29.03"/>
          <rect class="cls-3" x="8.62" y="27.63" width=".7" height=".7" transform="translate(9.2 57.36) rotate(-162.66)"/>
          <polygon class="cls-3" points="11.43 28.37 12.1 28.57 11.89 29.24 11.22 29.03 11.43 28.37"/>
        </g>
        <g>
          <rect class="cls-3" x="20.17" y="29.04" width=".7" height=".7" transform="translate(31.35 63.57) rotate(-162.66)"/>
          <rect class="cls-3" x="21.05" y="28.58" width=".7" height=".7" transform="translate(33.2 62.93) rotate(-162.66)"/>
          <rect class="cls-3" x="20.26" y="31.15" width=".7" height=".7" transform="translate(30.9 67.71) rotate(-162.66)"/>
          <rect class="cls-3" x="21.51" y="29.46" width=".7" height=".7" transform="translate(33.84 64.78) rotate(-162.66)"/>
          <polygon class="cls-3" points="19.43 29.43 20.1 29.64 19.89 30.28 19.22 30.07 19.43 29.43"/>
          <polygon class="cls-3" points="19.89 30.27 20.56 30.47 20.37 31.06 19.7 30.85 19.89 30.27"/>
          <polygon class="cls-3" points="22.79 30.47 22.12 30.26 21.91 30.9 22.58 31.1 22.79 30.47"/>
          <polygon class="cls-3" points="21.91 30.89 21.24 30.68 21.05 31.27 21.72 31.47 21.91 30.89"/>
          <rect class="cls-3" x="19.87" y="32.41" width=".7" height=".7" transform="translate(29.76 70.05) rotate(-162.66)"/>
          <polygon class="cls-3" points="19.5 31.52 20.17 31.73 19.98 32.31 19.31 32.11 19.5 31.52"/>
          <polygon class="cls-3" points="21.52 32.14 20.85 31.94 20.66 32.52 21.33 32.73 21.52 32.14"/>
          <rect class="cls-3" x="18.93" y="30.74" width=".7" height=".7" transform="translate(28.42 66.52) rotate(-162.66)"/>
          <polygon class="cls-3" points="21.74 31.48 22.41 31.69 22.19 32.35 21.53 32.14 21.74 31.48"/>
        </g>
        <rect class="cls-3" x="14.5" y="28.08" width=".7" height=".7" transform="translate(20.71 59.96) rotate(-162.96)"/>
        <rect class="cls-3" x="13.15" y="27.66" width=".7" height=".7" transform="translate(18.19 58.75) rotate(-162.96)"/>
        <rect class="cls-3" x="15.17" y="28.28" width=".7" height=".7" transform="translate(21.96 60.55) rotate(-162.96)"/>
        <rect class="cls-3" x="15.83" y="28.49" width=".7" height=".7" transform="translate(23.21 61.15) rotate(-162.96)"/>
        <rect class="cls-3" x="17.16" y="28.89" width=".7" height=".7" transform="translate(25.69 62.34) rotate(-162.96)"/>
        <g>
          <rect class="cls-3" x="23.37" y="32.91" width=".7" height=".7" transform="translate(36.66 72.02) rotate(-162.96)"/>
          <rect class="cls-3" x="23.17" y="33.58" width=".7" height=".7" transform="translate(36.06 73.27) rotate(-162.96)"/>
          <rect class="cls-3" x="23.84" y="33.79" width=".7" height=".7" transform="translate(37.31 73.87) rotate(-162.96)"/>
          <rect class="cls-3" x="22.5" y="33.38" width=".7" height=".7" transform="translate(34.81 72.67) rotate(-162.96)"/>
          <rect class="cls-3" x="22.96" y="34.25" width=".7" height=".7" transform="translate(35.47 74.52) rotate(-162.96)"/>
          <rect class="cls-3" x="21.62" y="33.84" width=".7" height=".7" transform="translate(32.97 73.32) rotate(-162.96)"/>
          <rect class="cls-3" x="21.42" y="34.51" width=".7" height=".7" transform="translate(32.37 74.58) rotate(-162.96)"/>
          <rect class="cls-3" x="22.09" y="34.72" width=".7" height=".7" transform="translate(33.62 75.17) rotate(-162.96)"/>
          <rect class="cls-3" x="20.75" y="34.31" width=".7" height=".7" transform="translate(31.12 73.98) rotate(-162.96)"/>
          <rect class="cls-3" x="21.21" y="35.18" width=".7" height=".7" transform="translate(31.77 75.83) rotate(-162.96)"/>
          <rect class="cls-3" x="24.3" y="34.66" width=".7" height=".7" transform="translate(37.97 75.71) rotate(-162.96)"/>
          <rect class="cls-3" x="24.1" y="35.33" width=".7" height=".7" transform="translate(37.37 76.97) rotate(-162.96)"/>
          <rect class="cls-3" x="24.77" y="35.54" width=".7" height=".7" transform="translate(38.62 77.56) rotate(-162.96)"/>
          <rect class="cls-3" x="23.43" y="35.13" width=".7" height=".7" transform="translate(36.12 76.37) rotate(-162.96)"/>
          <rect class="cls-3" x="23.89" y="36" width=".7" height=".7" transform="translate(36.77 78.22) rotate(-162.96)"/>
          <rect class="cls-3" x="22.55" y="35.59" width=".7" height=".7" transform="translate(34.27 77.02) rotate(-162.96)"/>
          <rect class="cls-3" x="23.02" y="36.47" width=".7" height=".7" transform="translate(34.92 78.87) rotate(-162.96)"/>
          <rect class="cls-3" x="21.68" y="36.06" width=".7" height=".7" transform="translate(32.42 77.68) rotate(-162.96)"/>
          <rect class="cls-3" x="22.14" y="36.93" width=".7" height=".7" transform="translate(33.07 79.52) rotate(-162.96)"/>
          <rect class="cls-3" x="22.35" y="36.26" width=".7" height=".7" transform="translate(33.67 78.27) rotate(-162.96)"/>
        </g>
        <g>
          <rect class="cls-3" x="5.88" y="27.79" width=".7" height=".7" transform="translate(3.94 56.88) rotate(-162.96)"/>
          <rect class="cls-3" x="5.67" y="28.46" width=".7" height=".7" transform="translate(3.34 58.13) rotate(-162.96)"/>
          <rect class="cls-3" x="6.34" y="28.67" width=".7" height=".7" transform="translate(4.59 58.73) rotate(-162.96)"/>
          <rect class="cls-3" x="5" y="28.26" width=".7" height=".7" transform="translate(2.09 57.53) rotate(-162.96)"/>
          <rect class="cls-3" x="5.47" y="29.13" width=".7" height=".7" transform="translate(2.74 59.38) rotate(-162.96)"/>
          <rect class="cls-3" x="4.13" y="28.72" width=".7" height=".7" transform="translate(.24 58.19) rotate(-162.96)"/>
          <rect class="cls-3" x="3.92" y="29.39" width=".7" height=".7" transform="translate(-.35 59.44) rotate(-162.96)"/>
          <rect class="cls-3" x="4.59" y="29.6" width=".7" height=".7" transform="translate(.9 60.04) rotate(-162.96)"/>
          <rect class="cls-3" x="3.25" y="29.19" width=".7" height=".7" transform="translate(-1.6 58.84) rotate(-162.96)"/>
          <rect class="cls-3" x="3.72" y="30.07" width=".7" height=".7" transform="translate(-.95 60.69) rotate(-162.96)"/>
          <rect class="cls-3" x="6.81" y="29.54" width=".7" height=".7" transform="translate(5.24 60.58) rotate(-162.96)"/>
          <rect class="cls-3" x="6.6" y="30.22" width=".7" height=".7" transform="translate(4.64 61.83) rotate(-162.96)"/>
          <rect class="cls-3" x="7.27" y="30.42" width=".7" height=".7" transform="translate(5.89 62.42) rotate(-162.96)"/>
          <rect class="cls-3" x="5.93" y="30.01" width=".7" height=".7" transform="translate(3.39 61.23) rotate(-162.96)"/>
          <rect class="cls-3" x="6.4" y="30.89" width=".7" height=".7" transform="translate(4.05 63.08) rotate(-162.96)"/>
          <rect class="cls-3" x="5.06" y="30.48" width=".7" height=".7" transform="translate(1.55 61.88) rotate(-162.96)"/>
          <rect class="cls-3" x="5.52" y="31.35" width=".7" height=".7" transform="translate(2.2 63.73) rotate(-162.96)"/>
          <rect class="cls-3" x="4.18" y="30.94" width=".7" height=".7" transform="translate(-.3 62.54) rotate(-162.96)"/>
          <rect class="cls-3" x="4.65" y="31.82" width=".7" height=".7" transform="translate(.35 64.39) rotate(-162.96)"/>
          <rect class="cls-3" x="4.85" y="31.15" width=".7" height=".7" transform="translate(.95 63.13) rotate(-162.96)"/>
        </g>
      </g>
    </g>
  </g>
</svg>